<?xml version="1.0" encoding="iso-8859-1"?>
<!-- Generator: Adobe Illustrator 18.1.1, SVG Export Plug-In . SVG Version: 6.00 Build 0)  -->
<svg version="1.1" id="Layer_1" xmlns="http://www.w3.org/2000/svg" xmlns:xlink="http://www.w3.org/1999/xlink" x="0px" y="0px"
	 viewBox="0 0 50 50" style="enable-background:new 0 0 50 50;" xml:space="preserve">
<path style="fill:#FFFFFF;" d="M39.552,15.018h-0.307v-2.807c0-3.923-5.069-7.104-8.992-7.104H19.777
	c-3.923,0-8.992,3.181-8.992,7.104v2.807h-0.307c-1.082,0-1.015,0.877-1.015,1.958v0.678c0,0.395,0.32,0.715,0.715,0.715h0.606
	l0.944,13.714c0,3.425,2.777,12.809,6.202,12.809H32.1c3.425,0,6.202-9.384,6.202-12.809l0.944-13.714h0.606
	c0.395,0,0.715-0.32,0.715-0.715v-0.678C40.567,15.895,40.634,15.018,39.552,15.018z M37.283,12.598c0,1.337-2.113,2.42-3.45,2.42
	H16.198c-1.337,0-3.45-1.084-3.45-2.42v0c0-3.382,4.369-6.124,7.752-6.124h9.031C32.913,6.474,37.283,9.215,37.283,12.598
	L37.283,12.598z"/>
</svg>
