<?xml version="1.0" encoding="iso-8859-1"?>
<!-- Generator: Adobe Illustrator 18.1.1, SVG Export Plug-In . SVG Version: 6.00 Build 0)  -->
<svg version="1.1" id="Layer_1" xmlns="http://www.w3.org/2000/svg" xmlns:xlink="http://www.w3.org/1999/xlink" x="0px" y="0px"
	 viewBox="0 0 62.25 62.25" style="enable-background:new 0 0 62.25 62.25;" xml:space="preserve">
<circle style="opacity:0.81;fill:#39B54A;" cx="31.125" cy="31.125" r="31.125"/>
<path style="fill:#FFFFFF;" d="M45.676,21.143h-0.307v-2.807c0-3.923-5.069-7.104-8.992-7.104H25.901
	c-3.923,0-8.992,3.181-8.992,7.104v2.807h-0.307c-1.082,0-1.015,0.877-1.015,1.958v0.678c0,0.395,0.32,0.715,0.715,0.715h0.606
	l0.944,13.714c0,3.425,2.777,12.809,6.202,12.809h14.168c3.425,0,6.202-9.384,6.202-12.809l0.944-13.714h0.606
	c0.395,0,0.715-0.32,0.715-0.715v-0.678C46.69,22.02,46.757,21.143,45.676,21.143z M43.406,18.723c0,1.337-2.113,2.42-3.45,2.42
	H22.321c-1.337,0-3.45-1.084-3.45-2.42v0c0-3.382,4.369-6.124,7.752-6.124h9.031C39.037,12.599,43.406,15.34,43.406,18.723
	L43.406,18.723z"/>
<circle style="fill:#362221;" cx="31.125" cy="31.125" r="31.125"/>
<path style="fill:#B08C4E;" d="M45.676,21.143h-0.307v-2.807c0-3.923-5.069-7.104-8.992-7.104H25.901
	c-3.923,0-8.992,3.181-8.992,7.104v2.807h-0.307c-1.082,0-1.015,0.877-1.015,1.958v0.678c0,0.395,0.32,0.715,0.715,0.715h0.606
	l0.944,13.714c0,3.425,2.777,12.809,6.202,12.809h14.168c3.425,0,6.202-9.384,6.202-12.809l0.944-13.714h0.606
	c0.395,0,0.715-0.32,0.715-0.715v-0.678C46.69,22.02,46.757,21.143,45.676,21.143z M43.406,18.723c0,1.337-2.113,2.42-3.45,2.42
	H22.321c-1.337,0-3.45-1.084-3.45-2.42v0c0-3.382,4.369-6.124,7.752-6.124h9.031C39.037,12.599,43.406,15.34,43.406,18.723
	L43.406,18.723z"/>
<path style="opacity:0.2;" d="M37.405,31.86c-0.207-0.207-0.497-0.331-0.795-0.331h-2.873v-2.872c0-0.298-0.125-0.588-0.332-0.796
	c-0.207-0.207-0.497-0.331-0.795-0.331h-2.254c-0.298,0-0.588,0.124-0.795,0.331c-0.207,0.207-0.332,0.497-0.332,0.796v2.872h-2.873
	c-0.298,0-0.588,0.124-0.795,0.331c-0.207,0.207-0.332,0.497-0.332,0.796v2.254c0,0.298,0.125,0.588,0.332,0.795
	c0.207,0.207,0.497,0.332,0.795,0.332h2.873v2.872c0,0.298,0.125,0.588,0.332,0.796c0.207,0.207,0.497,0.331,0.795,0.331h2.254
	c0.298,0,0.588-0.124,0.795-0.331c0.207-0.207,0.332-0.497,0.332-0.796v-2.872h2.873c0.298,0,0.588-0.124,0.795-0.332
	c0.207-0.207,0.332-0.497,0.332-0.795v-2.254C37.736,32.357,37.612,32.067,37.405,31.86z"/>
</svg>
