<?xml version="1.0" encoding="iso-8859-1"?>
<!-- Generator: Adobe Illustrator 18.1.1, SVG Export Plug-In . SVG Version: 6.00 Build 0)  -->
<svg version="1.1" id="Layer_1" xmlns="http://www.w3.org/2000/svg" xmlns:xlink="http://www.w3.org/1999/xlink" x="0px" y="0px"
	 viewBox="-63 313 512 512" style="enable-background:new -63 313 512 512;" xml:space="preserve">
<path style="fill:#FFFFFF;" d="M365.607,319.5h-340c-44.184,0-83.107,32.102-83.107,76.286v340
	c0,44.184,38.922,83.714,83.107,83.714h210.517c-0.394-65.534,0.093-138.512-0.225-201.926c-13.427-0.136-26.867-0.83-40.294-1.036
	c0.05-22.411,0.021-45.288,0.029-67.695c13.419-0.166,26.846-0.198,40.265-0.325c0.41-21.792-0.41-43.72,0.43-65.493
	c1.339-17.239,7.911-34.664,20.801-46.574c15.606-14.853,37.794-19.899,58.722-20.524c22.127-0.198,44.257-0.092,66.396-0.083
	c0.087,23.35,0.087,46.701-0.01,70.051c-14.307-0.024-28.623,0.028-42.93-0.03c-9.063-0.567-18.38,6.308-20.029,15.302
	c-0.215,15.625-0.078,31.258-0.069,46.879c20.977,0.089,41.962-0.024,62.939,0.053c-1.534,22.608-4.346,45.107-7.627,67.521
	c-18.534,0.166-37.08,1.837-55.604,1.944c-0.157,63.393,0.049,136.402-0.113,201.936h46.801c44.184,0,76.893-39.529,76.893-83.714
	V395.786C442.5,351.602,409.791,319.5,365.607,319.5z"/>
</svg>
