<?xml version="1.0" encoding="iso-8859-1"?>
<!-- Generator: Adobe Illustrator 18.1.1, SVG Export Plug-In . SVG Version: 6.00 Build 0)  -->
<svg version="1.1" id="Layer_1" xmlns="http://www.w3.org/2000/svg" xmlns:xlink="http://www.w3.org/1999/xlink" x="0px" y="0px"
	 viewBox="0 0 31.945 43.342" style="enable-background:new 0 0 31.945 43.342;" xml:space="preserve">
<g>
	<path style="fill:#C69C6D;" d="M16.049,43.342c-1.769-1.925-3.517-3.779-5.21-5.682c-3.074-3.455-5.831-7.151-8.175-11.14
		c-1.492-2.538-2.267-5.326-2.566-8.24C-0.443,13.005,1.267,8.477,4.895,4.7c2.368-2.465,5.327-3.97,8.719-4.5
		c2.988-0.467,5.911-0.128,8.664,1.156c4.94,2.304,8.013,6.178,9.27,11.454c0.906,3.802,0.168,7.467-1.273,11.009
		c-0.452,1.111-1.019,2.196-1.675,3.2c-3.666,5.617-7.777,10.9-12.194,15.946C16.322,43.063,16.229,43.153,16.049,43.342z"/>
	<path style="fill:#A67C52;" d="M25.752,21.796c-0.206-0.819-0.706-1.391-1.444-1.754c-0.296-0.146-0.628-0.218-0.945-0.318
		c-0.13-0.041-0.224-0.078-0.128-0.246c0.109-0.189,0.221-0.382,0.288-0.588c0.239-0.738,0.124-1.47-0.203-2.139
		c-0.352-0.722-1.001-1.118-1.783-1.287c-0.272-0.059-0.328-0.168-0.21-0.419c0.369-0.785,0.125-1.785-0.546-2.285
		c-0.505-0.376-1.085-0.533-1.693-0.614c-0.221-0.03-0.267-0.088-0.177-0.282c0.253-0.546,0.216-1.093,0.013-1.644
		c-0.197-0.536-0.572-0.947-0.952-1.353c-0.573-0.612-1.22-1.142-1.933-1.579c-0.639-0.391-1.281-0.798-2.052-0.89
		c-0.112-0.013-0.231,0.033-0.347,0.051c0.028,0.109,0.039,0.228,0.089,0.327c0.146,0.287,0.25,0.582,0.137,0.898
		c-0.08,0.222-0.2,0.429-0.313,0.638c-0.232,0.43-0.494,0.846-0.693,1.291c-0.076,0.17-0.04,0.407-0.005,0.604
		c0.031,0.17,0.134,0.327,0.206,0.489c0.053,0.121,0.041,0.216-0.099,0.267c-0.144,0.053-0.284,0.119-0.431,0.165
		c-0.539,0.168-0.989,0.48-1.358,0.893c-0.476,0.532-0.814,1.146-0.771,1.884c0.021,0.371,0.124,0.742,0.227,1.102
		c0.09,0.315,0.059,0.398-0.255,0.464c-0.455,0.096-0.861,0.303-1.206,0.611c-0.378,0.336-0.602,0.759-0.738,1.255
		c-0.112,0.407-0.14,0.813-0.089,1.212c0.039,0.304,0.181,0.605,0.326,0.882c0.105,0.201,0.12,0.226-0.103,0.297
		c-0.317,0.1-0.643,0.189-0.939,0.337c-0.463,0.23-0.85,0.559-1.122,1.015c-0.378,0.634-0.48,1.322-0.385,2.034
		c0.065,0.484,0.22,0.951,0.557,1.329c0.211,0.237,0.462,0.414,0.775,0.491c0.362,0.089,0.72,0.214,1.087,0.258
		c0.946,0.114,1.847-0.228,2.771-0.338c1.069-0.128,2.11-0.094,3.164,0.076c0.752,0.121,1.513,0.212,2.273,0.253
		c0.801,0.043,1.605,0.01,2.408,0.01c0,0.004,0,0.007,0,0.011c0.58,0,1.16,0.007,1.74-0.003c0.371-0.006,0.743-0.018,1.111-0.064
		c0.417-0.052,0.826-0.163,1.243-0.217c0.574-0.074,1.103-0.262,1.59-0.567c0.426-0.267,0.735-0.632,0.904-1.115
		C25.914,22.755,25.875,22.283,25.752,21.796z"/>
</g>
</svg>
