<?xml version="1.0" encoding="iso-8859-1"?>
<!-- Generator: Adobe Illustrator 18.1.1, SVG Export Plug-In . SVG Version: 6.00 Build 0)  -->
<svg version="1.1" id="Layer_1" xmlns="http://www.w3.org/2000/svg" xmlns:xlink="http://www.w3.org/1999/xlink" x="0px" y="0px"
	 viewBox="0 0 60.609 82.233" style="enable-background:new 0 0 60.609 82.233;" xml:space="preserve">
<path style="fill:#C69C6D;" d="M30.45,82.233c-3.356-3.653-6.672-7.17-9.885-10.78c-5.833-6.555-11.062-13.568-15.51-21.136
	c-2.83-4.816-4.301-10.105-4.869-15.633c-1.027-10.009,2.217-18.6,9.102-25.767c4.493-4.678,10.107-7.532,16.543-8.538
	c5.67-0.886,11.215-0.242,16.437,2.194c9.373,4.372,15.203,11.722,17.588,21.732c1.718,7.213,0.319,14.166-2.415,20.888
	c-0.858,2.108-1.934,4.166-3.178,6.072c-6.956,10.658-14.755,20.68-23.135,30.254C30.968,81.703,30.792,81.874,30.45,82.233z"/>
<path style="fill:#A67C52;" d="M52.535,29.273c-0.206-0.819-0.706-1.391-1.444-1.754c-0.296-0.146-0.628-0.218-0.946-0.318
	c-0.13-0.041-0.224-0.078-0.128-0.246c0.109-0.189,0.221-0.382,0.288-0.588c0.239-0.738,0.124-1.47-0.203-2.139
	c-0.352-0.722-1.001-1.118-1.783-1.287c-0.272-0.059-0.328-0.168-0.21-0.419c0.369-0.785,0.125-1.785-0.546-2.285
	c-0.505-0.376-1.085-0.533-1.693-0.614c-0.221-0.03-0.267-0.088-0.177-0.282c0.253-0.546,0.216-1.093,0.013-1.644
	c-0.197-0.536-0.572-0.947-0.952-1.353c-0.573-0.612-1.22-1.142-1.933-1.579c-0.639-0.391-1.281-0.798-2.052-0.89
	c-0.112-0.013-0.231,0.033-0.347,0.051c0.028,0.109,0.039,0.228,0.089,0.327c0.146,0.287,0.25,0.582,0.137,0.898
	c-0.08,0.222-0.2,0.429-0.313,0.638c-0.232,0.43-0.494,0.846-0.693,1.291c-0.076,0.17-0.04,0.407-0.005,0.604
	c0.031,0.17,0.134,0.327,0.206,0.489c0.053,0.121,0.041,0.216-0.099,0.267c-0.144,0.053-0.284,0.119-0.431,0.165
	c-0.539,0.168-0.989,0.48-1.358,0.893c-0.476,0.532-0.814,1.146-0.771,1.884c0.021,0.371,0.124,0.742,0.227,1.102
	c0.09,0.315,0.059,0.398-0.255,0.464c-0.455,0.096-0.861,0.303-1.206,0.611c-0.378,0.336-0.602,0.759-0.738,1.255
	c-0.112,0.407-0.14,0.813-0.089,1.212c0.039,0.304,0.181,0.605,0.326,0.882c0.105,0.201,0.12,0.226-0.103,0.297
	c-0.317,0.1-0.643,0.189-0.939,0.337c-0.463,0.23-0.85,0.559-1.122,1.015c-0.378,0.634-0.48,1.322-0.385,2.034
	c0.065,0.484,0.22,0.951,0.557,1.329c0.211,0.237,0.462,0.414,0.775,0.491c0.362,0.089,0.72,0.214,1.087,0.258
	c0.946,0.114,1.847-0.228,2.771-0.338c1.069-0.128,2.11-0.094,3.164,0.076c0.752,0.121,1.513,0.212,2.273,0.253
	c0.801,0.043,1.605,0.01,2.408,0.01c0,0.004,0,0.007,0,0.011c0.58,0,1.16,0.007,1.74-0.003c0.371-0.006,0.743-0.018,1.111-0.064
	c0.417-0.052,0.826-0.163,1.243-0.217c0.574-0.074,1.103-0.262,1.59-0.567c0.426-0.267,0.735-0.632,0.904-1.115
	C52.696,30.232,52.658,29.761,52.535,29.273z"/>
<path style="fill:#A67C52;" d="M26.213,32.239c-0.206-0.819-0.706-1.391-1.444-1.754c-0.296-0.146-0.628-0.218-0.946-0.318
	c-0.13-0.041-0.224-0.078-0.128-0.246c0.109-0.189,0.221-0.382,0.288-0.588c0.239-0.738,0.124-1.47-0.203-2.139
	c-0.352-0.722-1.001-1.118-1.783-1.287c-0.272-0.059-0.328-0.168-0.21-0.419c0.369-0.785,0.125-1.785-0.546-2.285
	c-0.505-0.376-1.085-0.533-1.693-0.614c-0.221-0.03-0.267-0.088-0.177-0.282c0.253-0.546,0.216-1.093,0.013-1.644
	c-0.197-0.536-0.572-0.947-0.952-1.353c-0.573-0.612-1.22-1.142-1.933-1.579c-0.639-0.391-1.281-0.798-2.052-0.89
	c-0.112-0.013-0.231,0.033-0.347,0.051c0.028,0.109,0.039,0.228,0.089,0.327c0.146,0.287,0.25,0.582,0.137,0.898
	c-0.08,0.222-0.2,0.429-0.313,0.638c-0.232,0.43-0.494,0.846-0.693,1.291c-0.076,0.17-0.04,0.407-0.005,0.604
	c0.031,0.17,0.134,0.327,0.206,0.489c0.053,0.121,0.041,0.216-0.099,0.267c-0.144,0.053-0.284,0.119-0.431,0.165
	c-0.539,0.168-0.989,0.48-1.358,0.893c-0.476,0.532-0.814,1.146-0.771,1.884c0.021,0.371,0.124,0.742,0.227,1.102
	c0.09,0.315,0.059,0.398-0.255,0.464c-0.455,0.096-0.861,0.303-1.206,0.611c-0.378,0.336-0.602,0.759-0.738,1.255
	c-0.112,0.407-0.14,0.813-0.089,1.212c0.039,0.304,0.181,0.605,0.326,0.882c0.105,0.201,0.12,0.226-0.103,0.297
	c-0.317,0.1-0.643,0.189-0.939,0.337c-0.463,0.23-0.85,0.559-1.122,1.015c-0.378,0.634-0.48,1.322-0.385,2.034
	c0.065,0.484,0.22,0.951,0.557,1.329C7.349,35.123,7.6,35.3,7.913,35.377c0.362,0.089,0.72,0.214,1.087,0.258
	c0.946,0.114,1.847-0.228,2.771-0.338c1.069-0.128,2.11-0.094,3.164,0.076c0.752,0.121,1.513,0.212,2.273,0.253
	c0.801,0.043,1.605,0.01,2.408,0.01c0,0.004,0,0.007,0,0.011c0.58,0,1.16,0.007,1.74-0.003c0.371-0.006,0.743-0.018,1.111-0.064
	c0.417-0.052,0.826-0.163,1.243-0.217c0.574-0.074,1.103-0.262,1.59-0.567c0.426-0.267,0.735-0.632,0.904-1.115
	C26.374,33.198,26.335,32.726,26.213,32.239z"/>
<path style="fill:#A67C52;" d="M15.66,41.84c-0.472,0.791-0.634,1.67-0.498,2.688c0.094,0.708,0.312,1.246,0.667,1.645
	c0.242,0.271,0.484,0.43,0.764,0.499c0.19,0.047,0.382,0.1,0.573,0.153c0.383,0.105,0.745,0.206,1.086,0.247
	c0.885,0.107,1.751-0.078,2.696-0.271c0.518-0.106,1.053-0.216,1.604-0.282c1.797-0.216,3.581-0.174,5.459,0.13
	c1.312,0.211,2.495,0.343,3.616,0.402c0.891,0.048,1.786,0.036,2.679,0.024c0.404-0.005,0.808-0.01,1.212-0.01l1.71,0.021
	c0.374,0,0.748-0.002,1.122-0.008c0.552-0.01,1.14-0.025,1.71-0.098c0.327-0.04,0.647-0.105,0.969-0.169
	c0.354-0.07,0.707-0.14,1.063-0.186c0.809-0.105,1.528-0.362,2.201-0.784c0.526-0.33,0.876-0.758,1.069-1.31
	c0.179-0.51,0.176-1.044-0.012-1.786c-0.255-1.01-0.856-1.736-1.838-2.22c-0.268-0.132-0.594-0.227-0.939-0.326
	c-0.157-0.045-0.313-0.091-0.469-0.14c-0.188-0.06-0.688-0.218-0.895-0.751c-0.095-0.243-0.15-0.633,0.121-1.104
	c0.163-0.281,0.312-0.538,0.386-0.771c0.283-0.872,0.189-1.799-0.277-2.757c-0.399-0.817-1.129-1.33-2.232-1.568
	c-0.201-0.044-0.809-0.176-1.098-0.762c-0.191-0.388-0.172-0.834,0.06-1.327c0.4-0.85,0.137-1.978-0.586-2.516
	c-0.572-0.427-1.285-0.679-2.309-0.816c-0.195-0.026-0.787-0.106-1.085-0.649c-0.196-0.357-0.189-0.77,0.021-1.224
	c0.266-0.573,0.262-1.187-0.01-1.928c-0.244-0.663-0.714-1.196-1.351-1.876c-0.881-0.94-1.876-1.753-2.957-2.416l-0.107-0.065
	c-0.635-0.39-1.246-0.765-1.882-1.006c0.06,0.363,0.047,0.763-0.105,1.188c-0.139,0.384-0.328,0.731-0.495,1.037l-0.079,0.146
	c-0.128,0.236-0.262,0.473-0.396,0.708c-0.261,0.46-0.507,0.894-0.707,1.339c0.001,0,0.001,0,0.001,0
	c0.009,0,0.011,0.114,0.063,0.398c0.011,0.056,0.082,0.196,0.129,0.289c0.049,0.097,0.097,0.194,0.14,0.292
	c0.207,0.472,0.133,0.847,0.034,1.077c-0.097,0.228-0.309,0.534-0.768,0.702l-0.238,0.094c-0.17,0.069-0.34,0.138-0.516,0.191
	c-0.666,0.207-1.263,0.603-1.772,1.173c-0.735,0.821-1.057,1.57-1.011,2.359c0.027,0.486,0.168,1.007,0.334,1.589
	c0.077,0.267,0.237,0.823-0.071,1.337c-0.308,0.511-0.864,0.628-1.102,0.678c-0.567,0.119-1.077,0.378-1.517,0.769
	c-0.432,0.383-0.72,0.882-0.909,1.572c-0.146,0.532-0.187,1.068-0.119,1.595c0.043,0.339,0.23,0.732,0.428,1.106
	c0.143,0.272,0.357,0.681,0.152,1.179c-0.207,0.504-0.678,0.653-0.903,0.725l-0.267,0.083c-0.409,0.126-0.796,0.246-1.128,0.411
	C16.45,40.879,15.984,41.297,15.66,41.84z"/>
<path style="fill:#C69C6D;" d="M18.778,49.102c-0.254,0-0.509-0.014-0.765-0.044c-0.491-0.06-0.944-0.186-1.383-0.307
	c-0.172-0.048-0.345-0.096-0.518-0.139c-0.672-0.166-1.27-0.54-1.777-1.11c-0.629-0.706-1.008-1.593-1.156-2.71
	c-0.195-1.461,0.061-2.798,0.762-3.976c0.52-0.872,1.277-1.56,2.252-2.045c0.31-0.154,0.622-0.271,0.931-0.374
	c-0.144-0.343-0.258-0.703-0.307-1.087c-0.1-0.788-0.041-1.588,0.174-2.375c0.293-1.067,0.787-1.897,1.511-2.539
	c0.586-0.521,1.254-0.896,1.988-1.117c-0.151-0.556-0.27-1.082-0.301-1.646c-0.078-1.335,0.418-2.581,1.516-3.807
	c0.742-0.831,1.625-1.415,2.624-1.735c-0.045-0.12-0.084-0.251-0.109-0.393c-0.094-0.511-0.15-1.06,0.078-1.572
	c0.239-0.533,0.521-1.029,0.793-1.51c0.127-0.223,0.253-0.445,0.374-0.67l0.084-0.153c0.146-0.268,0.283-0.52,0.369-0.758
	c0.036-0.101,0.04-0.254-0.175-0.677c-0.12-0.231-0.165-0.458-0.198-0.623l-0.298-1.18l1.196-0.197
	c0.138-0.032,0.326-0.076,0.546-0.076l0.184,0.011c1.439,0.17,2.619,0.894,3.66,1.532l0.106,0.065
	c1.234,0.756,2.369,1.683,3.372,2.754c0.608,0.65,1.364,1.458,1.768,2.553c0.34,0.927,0.416,1.811,0.228,2.64
	c0.771,0.164,1.663,0.46,2.473,1.064c1.334,0.993,1.889,2.802,1.416,4.402c1.422,0.444,2.457,1.297,3.042,2.497
	c0.692,1.419,0.825,2.889,0.384,4.249c-0.037,0.115-0.08,0.228-0.127,0.336c0.298,0.091,0.601,0.196,0.903,0.345
	c1.519,0.748,2.491,1.935,2.894,3.525c0.178,0.706,0.367,1.777-0.041,2.938c-0.344,0.982-0.981,1.771-1.893,2.342
	c-0.909,0.57-1.922,0.932-3.007,1.072c-0.312,0.041-0.622,0.104-0.932,0.165c-0.368,0.073-0.737,0.146-1.109,0.191
	c-0.668,0.085-1.344,0.103-1.925,0.113c-0.386,0.006-0.771,0.008-1.156,0.008l-2.71-0.014c-0.062,0-0.125,0.001-0.188,0.002
	c-0.938,0.011-1.876,0.021-2.81-0.026c-1.192-0.064-2.444-0.203-3.829-0.426c-1.692-0.274-3.29-0.312-4.902-0.118
	c-0.483,0.058-0.961,0.157-1.439,0.255C20.53,48.928,19.68,49.102,18.778,49.102z M26.124,22.944c0.009,0,0.011,0.114,0.063,0.398
	c0.011,0.056,0.082,0.196,0.129,0.289c0.049,0.097,0.097,0.194,0.14,0.292c0.207,0.472,0.133,0.847,0.034,1.077
	c-0.097,0.228-0.309,0.534-0.768,0.702l-0.238,0.094c-0.17,0.069-0.34,0.138-0.516,0.191c-0.666,0.207-1.263,0.603-1.772,1.173
	c-0.735,0.821-1.057,1.57-1.011,2.359c0.027,0.486,0.168,1.007,0.334,1.589c0.077,0.267,0.237,0.823-0.071,1.337
	c-0.308,0.511-0.864,0.628-1.102,0.678c-0.567,0.119-1.077,0.378-1.517,0.769c-0.432,0.383-0.72,0.882-0.909,1.572
	c-0.146,0.532-0.187,1.068-0.119,1.595c0.043,0.339,0.23,0.732,0.428,1.106c0.143,0.272,0.357,0.681,0.152,1.179
	c-0.207,0.504-0.678,0.653-0.903,0.725l-0.267,0.083c-0.409,0.126-0.796,0.246-1.128,0.411c-0.634,0.315-1.1,0.733-1.424,1.277
	c-0.472,0.791-0.634,1.67-0.498,2.688c0.094,0.708,0.312,1.246,0.667,1.645c0.242,0.271,0.484,0.43,0.764,0.499
	c0.19,0.047,0.382,0.1,0.573,0.153c0.383,0.105,0.745,0.206,1.086,0.247c0.885,0.107,1.751-0.078,2.696-0.271
	c0.518-0.106,1.053-0.216,1.604-0.282c1.797-0.216,3.581-0.174,5.459,0.13c1.312,0.211,2.495,0.343,3.616,0.402
	c0.891,0.048,1.786,0.036,2.679,0.024c0.404-0.005,0.808-0.01,1.212-0.01l1.71,0.021c0.374,0,0.748-0.002,1.122-0.008
	c0.552-0.01,1.14-0.025,1.71-0.098c0.327-0.04,0.647-0.105,0.969-0.169c0.354-0.07,0.707-0.14,1.063-0.186
	c0.809-0.105,1.528-0.362,2.201-0.784c0.526-0.33,0.876-0.758,1.069-1.31c0.179-0.51,0.176-1.044-0.012-1.786
	c-0.255-1.01-0.856-1.736-1.838-2.22c-0.268-0.132-0.594-0.227-0.939-0.326c-0.157-0.045-0.313-0.091-0.469-0.14
	c-0.188-0.06-0.688-0.218-0.895-0.751c-0.095-0.243-0.15-0.633,0.121-1.104c0.163-0.281,0.312-0.538,0.386-0.771
	c0.283-0.872,0.189-1.799-0.277-2.757c-0.399-0.817-1.129-1.33-2.232-1.568c-0.201-0.044-0.809-0.176-1.098-0.762
	c-0.191-0.388-0.172-0.834,0.06-1.327c0.4-0.85,0.137-1.978-0.586-2.516c-0.572-0.427-1.285-0.679-2.309-0.816
	c-0.195-0.026-0.787-0.106-1.085-0.649c-0.196-0.357-0.189-0.77,0.021-1.224c0.266-0.573,0.262-1.187-0.01-1.928
	c-0.244-0.663-0.714-1.196-1.351-1.876c-0.881-0.94-1.876-1.753-2.957-2.416l-0.107-0.065c-0.635-0.39-1.246-0.765-1.882-1.006
	c0.06,0.363,0.047,0.763-0.105,1.188c-0.139,0.384-0.328,0.731-0.495,1.037l-0.079,0.146c-0.128,0.236-0.262,0.473-0.396,0.708
	C26.569,22.065,26.323,22.499,26.124,22.944C26.124,22.944,26.124,22.944,26.124,22.944z"/>
</svg>
