<?xml version="1.0" encoding="iso-8859-1"?>
<!-- Generator: Adobe Illustrator 18.1.1, SVG Export Plug-In . SVG Version: 6.00 Build 0)  -->
<svg version="1.1" id="Layer_1" xmlns="http://www.w3.org/2000/svg" xmlns:xlink="http://www.w3.org/1999/xlink" x="0px" y="0px"
	 viewBox="0 0 60.613 82.239" style="enable-background:new 0 0 60.613 82.239;" xml:space="preserve">
<path style="fill:#C69C6D;" d="M30.452,82.239c-3.356-3.653-6.673-7.171-9.886-10.781C14.733,64.903,9.504,57.889,5.055,50.32
	c-2.831-4.816-4.302-10.105-4.869-15.634C-0.841,24.677,2.404,16.085,9.289,8.917c4.494-4.678,10.107-7.533,16.544-8.539
	c5.67-0.886,11.216-0.242,16.439,2.194c9.373,4.372,15.204,11.723,17.589,21.734c1.718,7.214,0.319,14.167-2.415,20.889
	c-0.858,2.108-1.934,4.166-3.178,6.073C47.31,61.927,39.511,71.95,31.131,81.524C30.969,81.708,30.794,81.88,30.452,82.239z"/>
<path style="fill:#FFFFFF;" d="M44.859,22.665h-0.307v-2.807c0-3.923-5.069-7.104-8.992-7.104H25.084
	c-3.923,0-8.992,3.181-8.992,7.104v2.807h-0.307c-1.082,0-1.015,0.877-1.015,1.958v0.678c0,0.395,0.32,0.715,0.715,0.715h0.606
	l0.944,13.714c0,3.425,2.777,12.809,6.202,12.809h14.168c3.425,0,6.202-9.384,6.202-12.809l0.944-13.714h0.606
	c0.395,0,0.715-0.32,0.715-0.715v-0.678C45.873,23.542,45.94,22.665,44.859,22.665z"/>
<path style="fill:#362221;" d="M42.589,20.245c0,1.337-2.113,2.42-3.45,2.42H21.504c-1.337,0-3.45-1.084-3.45-2.42v0
	c0-3.382,4.369-6.124,7.752-6.124h9.031C38.22,14.121,42.589,16.862,42.589,20.245L42.589,20.245z"/>
</svg>
