<?xml version="1.0" encoding="UTF-8" standalone="no"?>
<!-- Created with Inkscape (http://www.inkscape.org/) -->

<svg
   xmlns:dc="http://purl.org/dc/elements/1.1/"
   xmlns:cc="http://creativecommons.org/ns#"
   xmlns:rdf="http://www.w3.org/1999/02/22-rdf-syntax-ns#"
   xmlns:svg="http://www.w3.org/2000/svg"
   xmlns="http://www.w3.org/2000/svg"
   xmlns:sodipodi="http://sodipodi.sourceforge.net/DTD/sodipodi-0.dtd"
   xmlns:inkscape="http://www.inkscape.org/namespaces/inkscape"
   width="210mm"
   height="297mm"
   viewBox="0 0 744.09448819 1052.3622047"
   id="svg2"
   version="1.1"
   inkscape:version="0.91 r13725"
   sodipodi:docname="poo-only.svg">
  <defs
     id="defs4" />
  <sodipodi:namedview
     id="base"
     pagecolor="#ffffff"
     bordercolor="#666666"
     borderopacity="1.0"
     inkscape:pageopacity="0.0"
     inkscape:pageshadow="2"
     inkscape:zoom="0.35"
     inkscape:cx="375"
     inkscape:cy="520"
     inkscape:document-units="px"
     inkscape:current-layer="g3343"
     showgrid="false"
     inkscape:window-width="3072"
     inkscape:window-height="1665"
     inkscape:window-x="-8"
     inkscape:window-y="-8"
     inkscape:window-maximized="1" />
  <metadata
     id="metadata7">
    <rdf:RDF>
      <cc:Work
         rdf:about="">
        <dc:format>image/svg+xml</dc:format>
        <dc:type
           rdf:resource="http://purl.org/dc/dcmitype/StillImage" />
        <dc:title></dc:title>
      </cc:Work>
    </rdf:RDF>
  </metadata>
  <g
     inkscape:label="Vrstva 1"
     inkscape:groupmode="layer"
     id="layer1">
    <g
       id="g3337"
       transform="matrix(11.807056,0,0,11.807056,47.788443,115.22779)">
      <path
         id="path3339"
         d="M 27.702,72.666 C 24.791,69.498 21.914,66.446 19.127,63.315 14.068,57.629 9.531,51.546 5.673,44.981 3.218,40.804 1.942,36.216 1.45,31.42 0.56,22.738 3.374,15.286 9.346,9.069 c 3.898,-4.058 8.767,-6.534 14.35,-7.406 4.918,-0.769 9.728,-0.21 14.258,1.903 8.13,3.792 13.187,10.168 15.256,18.851 1.49,6.257 0.277,12.288 -2.095,18.118 -0.744,1.829 -1.677,3.614 -2.757,5.267 -6.034,9.245 -12.799,17.939 -20.068,26.243 -0.139,0.16 -0.291,0.309 -0.588,0.621 z"
         style="fill:#ffffff"
         inkscape:connector-curvature="0" />
      <path
         id="path3341"
         d="m 43.671,37.205 c -0.34,-1.348 -1.162,-2.288 -2.376,-2.887 -0.487,-0.24 -1.034,-0.358 -1.556,-0.524 -0.214,-0.068 -0.369,-0.129 -0.21,-0.404 0.179,-0.311 0.364,-0.629 0.474,-0.968 0.393,-1.215 0.204,-2.419 -0.333,-3.52 -0.58,-1.189 -1.647,-1.84 -2.934,-2.118 -0.447,-0.097 -0.54,-0.276 -0.345,-0.69 0.608,-1.291 0.206,-2.938 -0.898,-3.76 -0.831,-0.619 -1.786,-0.876 -2.787,-1.011 -0.364,-0.049 -0.439,-0.144 -0.291,-0.464 0.416,-0.899 0.355,-1.799 0.022,-2.706 -0.324,-0.883 -0.941,-1.558 -1.566,-2.226 -0.943,-1.008 -2.007,-1.88 -3.181,-2.598 -1.051,-0.644 -2.108,-1.314 -3.377,-1.464 -0.185,-0.022 -0.381,0.054 -0.572,0.084 0.047,0.18 0.064,0.376 0.146,0.538 0.241,0.472 0.412,0.959 0.226,1.477 -0.131,0.365 -0.33,0.707 -0.515,1.05 -0.381,0.708 -0.813,1.392 -1.14,2.124 -0.125,0.279 -0.067,0.67 -0.008,0.994 0.051,0.28 0.221,0.538 0.339,0.806 0.088,0.199 0.068,0.355 -0.163,0.44 -0.238,0.087 -0.468,0.196 -0.709,0.271 -0.887,0.276 -1.627,0.789 -2.235,1.469 -0.783,0.875 -1.339,1.885 -1.269,3.1 0.035,0.611 0.204,1.221 0.374,1.814 0.149,0.519 0.097,0.655 -0.42,0.764 -0.749,0.158 -1.416,0.499 -1.986,1.005 -0.623,0.553 -0.991,1.25 -1.215,2.065 -0.184,0.67 -0.231,1.338 -0.147,1.995 0.064,0.5 0.298,0.996 0.536,1.452 0.174,0.331 0.197,0.372 -0.169,0.488 -0.522,0.165 -1.058,0.312 -1.545,0.554 -0.762,0.379 -1.4,0.92 -1.847,1.67 -0.621,1.043 -0.79,2.175 -0.633,3.348 0.107,0.797 0.362,1.564 0.917,2.188 0.348,0.39 0.76,0.681 1.275,0.808 0.596,0.147 1.185,0.352 1.789,0.425 1.556,0.188 3.039,-0.375 4.56,-0.557 1.759,-0.21 3.472,-0.155 5.207,0.125 1.238,0.2 2.49,0.349 3.741,0.416 1.318,0.07 2.642,0.016 3.963,0.016 0,0.006 0,0.012 0,0.018 0.954,0 1.909,0.012 2.863,-0.004 0.61,-0.01 1.224,-0.029 1.828,-0.105 0.686,-0.086 1.36,-0.268 2.045,-0.357 0.945,-0.123 1.816,-0.43 2.617,-0.933 0.702,-0.44 1.209,-1.04 1.488,-1.835 0.282,-0.795 0.219,-1.571 0.017,-2.373 z"
         style="fill:#c69c6d"
         inkscape:connector-curvature="0" />
      <g
         id="g3343" />
    </g>
  </g>
</svg>
