<?xml version="1.0" encoding="iso-8859-1"?>
<!-- Generator: Adobe Illustrator 18.1.1, SVG Export Plug-In . SVG Version: 6.00 Build 0)  -->
<svg version="1.1" id="Layer_1" xmlns="http://www.w3.org/2000/svg" xmlns:xlink="http://www.w3.org/1999/xlink" x="0px" y="0px"
	 viewBox="0 0 50 50" style="enable-background:new 0 0 50 50;" xml:space="preserve">
<path style="fill:#FFFFFF;" d="M46.263,38.022c-0.449-1.781-1.535-3.023-3.139-3.814c-0.643-0.317-1.366-0.473-2.056-0.692
	c-0.283-0.09-0.488-0.17-0.278-0.534c0.237-0.411,0.481-0.831,0.626-1.278c0.519-1.605,0.269-3.195-0.44-4.65
	c-0.766-1.571-2.176-2.431-3.876-2.798c-0.59-0.128-0.714-0.365-0.456-0.912c0.803-1.706,0.272-3.881-1.186-4.968
	c-1.098-0.818-2.36-1.158-3.682-1.336c-0.481-0.065-0.58-0.191-0.385-0.612c0.55-1.188,0.469-2.377,0.028-3.574
	c-0.429-1.166-1.243-2.058-2.069-2.941c-1.246-1.331-2.652-2.483-4.202-3.432c-1.389-0.85-2.785-1.736-4.461-1.934
	c-0.244-0.029-0.503,0.071-0.755,0.111c0.062,0.238,0.084,0.496,0.193,0.71c0.318,0.623,0.544,1.266,0.298,1.952
	c-0.173,0.482-0.436,0.934-0.68,1.387c-0.503,0.935-1.074,1.839-1.506,2.806c-0.165,0.369-0.088,0.885-0.01,1.313
	c0.067,0.37,0.292,0.711,0.448,1.064c0.116,0.263,0.09,0.469-0.215,0.581c-0.314,0.115-0.618,0.259-0.936,0.358
	c-1.172,0.365-2.15,1.043-2.953,1.94c-1.034,1.156-1.769,2.491-1.677,4.095c0.047,0.807,0.269,1.613,0.494,2.397
	c0.196,0.685,0.128,0.866-0.555,1.01c-0.989,0.208-1.871,0.66-2.623,1.328c-0.823,0.731-1.309,1.651-1.605,2.728
	c-0.243,0.885-0.305,1.768-0.194,2.636c0.084,0.661,0.393,1.316,0.709,1.918c0.229,0.437,0.26,0.492-0.223,0.645
	c-0.689,0.218-1.398,0.412-2.041,0.732c-1.006,0.501-1.849,1.215-2.44,2.206c-0.821,1.378-1.044,2.873-0.837,4.423
	c0.141,1.053,0.478,2.067,1.212,2.89c0.459,0.515,1.004,0.9,1.684,1.068c0.787,0.194,1.565,0.465,2.364,0.562
	c2.056,0.248,4.015-0.495,6.025-0.736c2.323-0.278,4.586-0.205,6.879,0.165c1.635,0.264,3.289,0.461,4.942,0.55
	c1.741,0.093,3.49,0.021,5.236,0.021c0,0.008,0,0.016,0,0.024c1.261,0,2.522,0.016,3.783-0.006c0.806-0.014,1.616-0.039,2.415-0.139
	c0.906-0.114,1.796-0.355,2.702-0.472c1.248-0.162,2.398-0.569,3.458-1.233c0.927-0.581,1.597-1.374,1.966-2.424
	C46.613,40.107,46.53,39.082,46.263,38.022z"/>
</svg>
