<?xml version="1.0" encoding="iso-8859-1"?>
<!-- Generator: Adobe Illustrator 18.1.1, SVG Export Plug-In . SVG Version: 6.00 Build 0)  -->
<svg version="1.1" id="Layer_1" xmlns="http://www.w3.org/2000/svg" xmlns:xlink="http://www.w3.org/1999/xlink" x="0px" y="0px"
	 viewBox="0 0 62.25 62.25" style="enable-background:new 0 0 62.25 62.25;" xml:space="preserve">
<circle style="opacity:0.81;fill:#39B54A;" cx="31.125" cy="31.125" r="31.125"/>
<path style="fill:#FFFFFF;" d="M48.178,38.569c-0.36-1.429-1.231-2.425-2.518-3.059c-0.516-0.254-1.095-0.379-1.649-0.555
	c-0.227-0.072-0.391-0.137-0.223-0.428c0.19-0.329,0.386-0.666,0.502-1.025c0.417-1.287,0.216-2.563-0.353-3.729
	c-0.614-1.26-1.745-1.949-3.108-2.244c-0.473-0.102-0.572-0.292-0.366-0.731c0.644-1.368,0.218-3.112-0.951-3.984
	c-0.88-0.656-1.892-0.929-2.953-1.071c-0.386-0.052-0.465-0.153-0.308-0.491c0.441-0.953,0.376-1.906,0.023-2.866
	c-0.344-0.935-0.997-1.651-1.659-2.358c-1-1.068-2.127-1.992-3.37-2.753c-1.114-0.682-2.233-1.392-3.577-1.551
	c-0.196-0.023-0.404,0.057-0.606,0.089c0.05,0.191,0.067,0.398,0.155,0.57c0.255,0.5,0.437,1.016,0.239,1.565
	c-0.139,0.386-0.349,0.749-0.545,1.113c-0.404,0.75-0.861,1.475-1.208,2.25c-0.133,0.296-0.071,0.71-0.008,1.053
	c0.054,0.296,0.234,0.57,0.359,0.853c0.093,0.211,0.072,0.376-0.172,0.466c-0.252,0.092-0.496,0.208-0.751,0.287
	c-0.94,0.292-1.724,0.836-2.368,1.556c-0.829,0.927-1.419,1.997-1.345,3.284c0.037,0.647,0.216,1.294,0.396,1.922
	c0.158,0.55,0.102,0.694-0.445,0.81c-0.793,0.167-1.501,0.529-2.104,1.065c-0.66,0.586-1.05,1.324-1.287,2.188
	c-0.195,0.71-0.244,1.418-0.156,2.114c0.067,0.53,0.315,1.055,0.568,1.538c0.184,0.351,0.209,0.395-0.179,0.517
	c-0.553,0.175-1.121,0.33-1.637,0.587c-0.807,0.402-1.483,0.974-1.957,1.769c-0.658,1.105-0.837,2.304-0.671,3.547
	c0.113,0.845,0.383,1.658,0.972,2.318c0.368,0.413,0.805,0.722,1.351,0.856c0.631,0.156,1.255,0.373,1.896,0.45
	c1.649,0.199,3.22-0.397,4.832-0.59c1.863-0.223,3.678-0.164,5.517,0.132c1.311,0.212,2.638,0.37,3.963,0.441
	c1.396,0.075,2.799,0.017,4.199,0.017c0,0.006,0,0.013,0,0.019c1.011,0,2.023,0.013,3.034-0.005
	c0.646-0.011,1.296-0.031,1.937-0.112c0.727-0.091,1.44-0.284,2.167-0.379c1.001-0.13,1.924-0.456,2.773-0.989
	c0.744-0.466,1.281-1.102,1.577-1.944C48.459,40.241,48.392,39.419,48.178,38.569z"/>
<circle style="fill:#362221;" cx="31.125" cy="31.125" r="31.125"/>
<path style="fill:#B08C4E;" d="M48.178,38.569c-0.36-1.429-1.231-2.425-2.518-3.059c-0.516-0.254-1.095-0.379-1.649-0.555
	c-0.227-0.072-0.391-0.137-0.223-0.428c0.19-0.329,0.386-0.666,0.502-1.025c0.417-1.287,0.216-2.563-0.353-3.729
	c-0.614-1.26-1.745-1.949-3.108-2.244c-0.473-0.102-0.572-0.292-0.366-0.731c0.644-1.368,0.218-3.112-0.951-3.984
	c-0.88-0.656-1.892-0.929-2.953-1.071c-0.386-0.052-0.465-0.153-0.308-0.491c0.441-0.953,0.376-1.906,0.023-2.866
	c-0.344-0.935-0.997-1.651-1.659-2.358c-1-1.068-2.127-1.992-3.37-2.753c-1.114-0.682-2.233-1.392-3.577-1.551
	c-0.196-0.023-0.404,0.057-0.606,0.089c0.05,0.191,0.067,0.398,0.155,0.57c0.255,0.5,0.437,1.016,0.239,1.565
	c-0.139,0.386-0.349,0.749-0.545,1.113c-0.404,0.75-0.861,1.475-1.208,2.25c-0.133,0.296-0.071,0.71-0.008,1.053
	c0.054,0.296,0.234,0.57,0.359,0.853c0.093,0.211,0.072,0.376-0.172,0.466c-0.252,0.092-0.496,0.208-0.751,0.287
	c-0.94,0.292-1.724,0.836-2.368,1.556c-0.829,0.927-1.419,1.997-1.345,3.284c0.037,0.647,0.216,1.294,0.396,1.922
	c0.158,0.55,0.102,0.694-0.445,0.81c-0.793,0.167-1.501,0.529-2.104,1.065c-0.66,0.586-1.05,1.324-1.287,2.188
	c-0.195,0.71-0.244,1.418-0.156,2.114c0.067,0.53,0.315,1.055,0.568,1.538c0.184,0.351,0.209,0.395-0.179,0.517
	c-0.553,0.175-1.121,0.33-1.637,0.587c-0.807,0.402-1.483,0.974-1.957,1.769c-0.658,1.105-0.837,2.304-0.671,3.547
	c0.113,0.845,0.383,1.658,0.972,2.318c0.368,0.413,0.805,0.722,1.351,0.856c0.631,0.156,1.255,0.373,1.896,0.45
	c1.649,0.199,3.22-0.397,4.832-0.59c1.863-0.223,3.678-0.164,5.517,0.132c1.311,0.212,2.638,0.37,3.963,0.441
	c1.396,0.075,2.799,0.017,4.199,0.017c0,0.006,0,0.013,0,0.019c1.011,0,2.023,0.013,3.034-0.005
	c0.646-0.011,1.296-0.031,1.937-0.112c0.727-0.091,1.44-0.284,2.167-0.379c1.001-0.13,1.924-0.456,2.773-0.989
	c0.744-0.466,1.281-1.102,1.577-1.944C48.459,40.241,48.392,39.419,48.178,38.569z"/>
<path style="opacity:0.2;" d="M37.047,30.86c-0.207-0.207-0.497-0.331-0.795-0.331h-2.873v-2.872c0-0.298-0.125-0.588-0.332-0.796
	c-0.207-0.207-0.497-0.331-0.795-0.331h-2.254c-0.298,0-0.588,0.124-0.795,0.331c-0.207,0.207-0.332,0.497-0.332,0.796v2.872h-2.873
	c-0.298,0-0.588,0.124-0.795,0.331s-0.332,0.497-0.332,0.796v2.254c0,0.298,0.125,0.588,0.332,0.795
	c0.207,0.207,0.497,0.332,0.795,0.332h2.873v2.872c0,0.298,0.125,0.588,0.332,0.796c0.207,0.207,0.497,0.331,0.795,0.331h2.254
	c0.298,0,0.588-0.124,0.795-0.331c0.207-0.207,0.332-0.497,0.332-0.796v-2.872h2.873c0.298,0,0.588-0.124,0.795-0.332
	c0.207-0.207,0.332-0.497,0.332-0.795v-2.254C37.378,31.357,37.254,31.067,37.047,30.86z"/>
</svg>
