<?xml version="1.0" encoding="iso-8859-1"?>
<!-- Generator: Adobe Illustrator 18.1.1, SVG Export Plug-In . SVG Version: 6.00 Build 0)  -->
<svg version="1.1" id="Layer_1" xmlns="http://www.w3.org/2000/svg" xmlns:xlink="http://www.w3.org/1999/xlink" x="0px" y="0px"
	 viewBox="0 0 50 50" style="enable-background:new 0 0 50 50;" xml:space="preserve">
<rect x="-5112.389" y="-79.332" style="fill:#F2F2F2;" width="547.17" height="346"/>
<rect x="-5112.389" y="-400.661" style="fill:none;" width="547.17" height="49.498"/>
<text transform="matrix(1 0 0 1 -5112.3887 -370.9606)" style="font-family:'FontAwesome'; font-size:33.75;">&#xF041;&#xF040;&#xF03E;&#xF030;&#xF014;&#xF013;&#xF017;&#xF00C;&#xF00D;</text>
<rect x="-5112.389" y="12.668" style="fill:none;" width="547.17" height="254"/>
<text transform="matrix(1 0 0 1 -4887.9453 164.0289)" style="opacity:0.09; font-family:'FontAwesome'; font-size:172;">&#xF041;</text>
<g>
	<rect x="-5099.804" y="-69.332" style="fill:none;" width="522" height="109.788"/>
	<text transform="matrix(1 0 0 1 -4629.2314 -16.5314)" style="font-family:'FontAwesome'; font-size:60;">&#xF040;</text>
</g>
<rect x="-5099.804" y="-181.791" style="fill:none;" width="522" height="84.233"/>
<text transform="matrix(1 0 0 1 -4629.2314 -128.9904)" style="font-family:'FontAwesome'; font-size:60;">&#xF013;</text>
<rect x="-5112.389" y="280.668" style="fill:#F2F2F2;" width="547.17" height="346"/>
<rect x="-5112.389" y="372.668" style="fill:none;" width="547.17" height="254"/>
<text transform="matrix(1 0 0 1 -4930.9453 524.0288)" style="opacity:0.09; font-family:'FontAwesome'; font-size:172;">&#xF030;</text>
<rect x="-5112.389" y="642.668" style="fill:#8CC63F;" width="547.17" height="92"/>
<g>
	<rect x="-5099.804" y="290.668" style="fill:none;" width="522" height="82"/>
	<text transform="matrix(1 0 0 1 -4629.2314 343.4686)" style="font-family:'FontAwesome'; font-size:60;">&#xF040;</text>
</g>
<rect x="-5099.804" y="666.668" style="fill:none;" width="522" height="49.498"/>
<text transform="matrix(1 0 0 1 -4855.6782 696.3683)" style="font-family:'FontAwesome'; font-size:33.75;">&#xF00C;</text>
<rect x="-8926.853" y="-79.332" style="fill:#F2F2F2;" width="547.17" height="346"/>
<rect x="-8926.853" y="12.668" style="fill:none;" width="547.17" height="254"/>
<text transform="matrix(1 0 0 1 -8702.4092 164.0289)" style="opacity:0.09; font-family:'FontAwesome'; font-size:172;">&#xF041;</text>
<g>
	<rect x="-8914.268" y="-69.332" style="fill:none;" width="522" height="109.788"/>
	<text transform="matrix(1 0 0 1 -8443.6953 -16.5314)" style="font-family:'FontAwesome'; font-size:60;">&#xF040;</text>
</g>
<rect x="-8914.268" y="-181.791" style="fill:none;" width="522" height="84.233"/>
<text transform="matrix(1 0 0 1 -8443.6953 -128.9904)" style="font-family:'FontAwesome'; font-size:60;">&#xF013;</text>
<rect x="-8926.853" y="280.668" style="fill:#F2F2F2;" width="547.17" height="346"/>
<rect x="-8926.853" y="372.668" style="fill:none;" width="547.17" height="254"/>
<text transform="matrix(1 0 0 1 -8745.4092 524.0289)" style="opacity:0.09; font-family:'FontAwesome'; font-size:172;">&#xF030;</text>
<rect x="-8926.853" y="920.88" style="fill:#8CC63F;" width="547.17" height="92"/>
<g>
	<rect x="-8914.268" y="290.668" style="fill:none;" width="522" height="82"/>
	<text transform="matrix(1 0 0 1 -8443.6953 343.4686)" style="font-family:'FontAwesome'; font-size:60;">&#xF040;</text>
</g>
<rect x="-8926.853" y="640.704" style="fill:#F2F2F2;" width="547.17" height="155.828"/>
<rect x="-8926.853" y="662.704" style="fill:none;" width="547.17" height="150.036"/>
<text transform="matrix(1 0 0 1 -8715.374 780.1801)" style="opacity:0.09; font-family:'Times-Roman'; font-size:172;">A</text>
<g>
	<rect x="-8914.268" y="650.704" style="fill:none;" width="522" height="82"/>
	<text transform="matrix(1 0 0 1 -8443.6953 703.5046)" style="font-family:'FontAwesome'; font-size:60;">&#xF040;</text>
</g>
<rect x="-8914.268" y="944.88" style="fill:none;" width="522" height="49.498"/>
<text transform="matrix(1 0 0 1 -8670.1426 974.5798)" style="font-family:'FontAwesome'; font-size:33.75;">&#xF00C;</text>
<rect x="-8926.853" y="811.885" style="fill:#F2F2F2;" width="168.255" height="92"/>
<rect x="-8914.268" y="826.039" style="fill:none;" width="143.085" height="73.191"/>
<text transform="matrix(1 0 0 1 -8872.7246 878.8384)" style="fill:#39B54A; font-family:'FontAwesome'; font-size:60;">&#xF0F2; </text>
<rect x="-8547.938" y="811.885" style="fill:#F2F2F2;" width="168.255" height="92"/>
<rect x="-8535.354" y="826.039" style="fill:none;" width="143.085" height="73.191"/>
<text transform="matrix(1 0 0 1 -8493.8105 878.8384)" style="fill:#C1272D; font-family:'FontAwesome'; font-size:60;">&#xF0F2; </text>
<rect x="-8737.396" y="811.885" style="fill:#F2F2F2;" width="168.255" height="92"/>
<rect x="-8724.811" y="826.039" style="fill:none;" width="143.085" height="73.191"/>
<text transform="matrix(1 0 0 1 -8683.2676 878.8384)" style="fill:#F15A24; font-family:'FontAwesome'; font-size:60;">&#xF0F2; </text>
<rect x="-4161.293" y="488.668" style="fill:#C69C6D;" width="547.17" height="346"/>
<rect x="-4161.293" y="580.668" style="fill:none;" width="547.17" height="254"/>
<text transform="matrix(1 0 0 1 -3936.8501 732.029)" style="opacity:0.09; font-family:'FontAwesome'; font-size:172;">&#xF041;</text>
<g>
	<rect x="-4148.709" y="386.209" style="fill:none;" width="522" height="109.788"/>
	<text transform="matrix(1 0 0 1 -3678.1362 439.0097)" style="font-family:'FontAwesome'; font-size:60;">&#xF013;</text>
</g>
<rect x="-4148.709" y="386.209" style="fill:none;" width="522" height="84.233"/>
<text transform="matrix(1 0 0 1 -4148.7085 439.0097)" style="font-family:'FontAwesome'; font-size:60;">&#xF053;</text>
<rect x="-4161.293" y="848.668" style="fill:#C69C6D;" width="547.17" height="346"/>
<rect x="-4161.293" y="940.668" style="fill:none;" width="547.17" height="254"/>
<text transform="matrix(1 0 0 1 -3979.8501 1092.0288)" style="opacity:0.09; font-family:'FontAwesome'; font-size:172;">&#xF030;</text>
<rect x="-4161.293" y="1210.668" style="fill:#ED1C24;" width="547.17" height="92"/>
<rect x="-4148.709" y="1234.668" style="fill:none;" width="522" height="49.498"/>
<text transform="matrix(1 0 0 1 -3900.9668 1264.3682)" style="font-family:'FontAwesome'; font-size:33.75;">&#xF014;</text>
<rect x="-5112.389" y="1084.668" style="fill:#8CC63F;" width="547.17" height="346"/>
<rect x="-5112.389" y="1176.668" style="fill:none;" width="547.17" height="254"/>
<text transform="matrix(1 0 0 1 -4887.9453 1328.0289)" style="opacity:0.09; font-family:'FontAwesome'; font-size:172;">&#xF041;</text>
<g>
	<rect x="-5099.804" y="982.209" style="fill:none;" width="522" height="109.788"/>
	<text transform="matrix(1 0 0 1 -4629.2314 1035.0096)" style="font-family:'FontAwesome'; font-size:60;">&#xF013;</text>
</g>
<rect x="-5099.804" y="982.209" style="fill:none;" width="522" height="84.233"/>
<text transform="matrix(1 0 0 1 -5099.8037 1035.0096)" style="font-family:'FontAwesome'; font-size:60;">&#xF053;</text>
<rect x="-5099.804" y="-181.791" style="fill:none;" width="522" height="84.233"/>
<text transform="matrix(1 0 0 1 -5099.8037 -128.9903)" style="font-family:'FontAwesome'; font-size:60;">&#xF053;</text>
<rect x="-8914.269" y="-181.791" style="fill:none;" width="522" height="84.233"/>
<text transform="matrix(1 0 0 1 -8914.2676 -128.9903)" style="font-family:'FontAwesome'; font-size:60;">&#xF053;</text>
<rect x="-8914.269" y="1280.209" style="fill:none;" width="522" height="84.233"/>
<text transform="matrix(1 0 0 1 -8914.2676 1333.0096)" style="font-family:'FontAwesome'; font-size:60;">&#xF053;</text>
<rect x="-5112.389" y="1444.668" style="fill:#8CC63F;" width="547.17" height="346"/>
<rect x="-5112.389" y="1536.668" style="fill:none;" width="547.17" height="254"/>
<text transform="matrix(1 0 0 1 -4930.9453 1688.0288)" style="opacity:0.09; font-family:'FontAwesome'; font-size:172;">&#xF030;</text>
<rect x="-5112.389" y="1888.507" style="fill:#C69C6D;" width="547.17" height="346"/>
<rect x="-5112.389" y="1980.507" style="fill:none;" width="547.17" height="254"/>
<text transform="matrix(1 0 0 1 -4887.9453 2131.8682)" style="opacity:0.09; font-family:'FontAwesome'; font-size:172;">&#xF041;</text>
<rect x="-5112.389" y="2248.508" style="fill:#C69C6D;" width="547.17" height="346"/>
<rect x="-5112.389" y="2340.508" style="fill:none;" width="547.17" height="254"/>
<text transform="matrix(1 0 0 1 -4930.9453 2491.8682)" style="opacity:0.09; font-family:'FontAwesome'; font-size:172;">&#xF030;</text>
<rect x="-5112.389" y="2734.338" style="fill:#C69C6D;" width="547.17" height="346"/>
<rect x="-5112.389" y="2826.338" style="fill:none;" width="547.17" height="254"/>
<text transform="matrix(1 0 0 1 -4887.9453 2977.6992)" style="opacity:0.09; font-family:'FontAwesome'; font-size:172;">&#xF041;</text>
<rect x="-5112.389" y="3094.338" style="fill:#C69C6D;" width="547.17" height="346"/>
<rect x="-5112.389" y="3186.338" style="fill:none;" width="547.17" height="254"/>
<text transform="matrix(1 0 0 1 -4930.9453 3337.699)" style="opacity:0.09; font-family:'FontAwesome'; font-size:172;">&#xF030;</text>
<rect x="-7008.389" y="-42.661" style="fill:none;" width="547.17" height="49.498"/>
<text transform="matrix(1 0 0 1 -6864.4194 -18.6984)" style="font-family:'MyriadPro-Regular'; font-size:33.75;">NAHRAJ HOVINKO</text>
<rect x="-7008.389" y="76.773" style="fill:none;" width="547.17" height="49.498"/>
<text transform="matrix(1 0 0 1 -6887.2168 100.7355)" style="font-family:'MyriadPro-Regular'; font-size:33.75;">NAHRAJ / UPRAV KOS</text>
<rect x="-7008.389" y="196.207" style="fill:none;" width="547.17" height="49.498"/>
<text transform="matrix(1 0 0 1 -6821.8945 220.1695)" style="font-family:'MyriadPro-Regular'; font-size:33.75;">UKAZ MAPU</text>
<text transform="matrix(1 0 0 1 -6505.1572 -132.2933)" style="font-family:'FontAwesome'; font-size:51.75;">&#xF0C9;</text>
<g>
	<g>
		<polyline style="fill:none;stroke:#FFFF00;stroke-width:3;stroke-miterlimit:10;" points="-4501.804,688.668 -4341.804,688.668 
			-4341.804,730.668 -4259.333,730.668 		"/>
		<g>
			<polygon style="fill:#FFFF00;" points="-4263.709,745.627 -4237.804,730.668 -4263.709,715.709 			"/>
		</g>
	</g>
</g>
<g>
	<g>
		<polyline style="fill:none;stroke:#FFFF00;stroke-width:3;stroke-miterlimit:10;" points="-4501.803,3381.124 -4449.803,3381.124 
			-4449.803,848.669 -4480.274,848.669 		"/>
		<g>
			<polygon style="fill:#FFFF00;" points="-4475.897,833.71 -4501.803,848.669 -4475.897,863.628 			"/>
		</g>
	</g>
</g>
<g>
	<g>
		<polyline style="fill:none;stroke:#FFFF00;stroke-width:3;stroke-miterlimit:10;" points="-5179.804,1536.668 -5259.304,1536.668 
			-5259.304,3526.395 -4285.804,3526.395 -4285.804,1158.419 -4259.333,1158.419 		"/>
		<g>
			<polygon style="fill:#FFFF00;" points="-4263.709,1173.378 -4237.804,1158.419 -4263.709,1143.46 			"/>
		</g>
	</g>
</g>
<rect x="-5158.804" y="3302.668" style="fill:#FFFFFF;" width="640" height="151.412"/>
<rect x="-5112.389" y="3332.374" style="fill:#8CC63F;" width="547.17" height="92"/>
<rect x="-5099.804" y="3356.374" style="fill:none;" width="522" height="49.498"/>
<text transform="matrix(1 0 0 1 -4855.6782 3386.0745)" style="font-family:'FontAwesome'; font-size:33.75;">&#xF00C;</text>
<g>
	<g>
		<polyline style="fill:none;stroke:#FFFF00;stroke-width:3;stroke-miterlimit:10;" points="-6384.804,82.22 -5674.803,82.22 
			-5674.803,506.538 -5215.332,506.538 		"/>
		<g>
			<polygon style="fill:#FFFF00;" points="-5219.709,521.497 -5193.803,506.538 -5219.709,491.579 			"/>
		</g>
	</g>
</g>
<g>
	<g>
		<polyline style="fill:none;stroke:#FFFF00;stroke-width:3;stroke-miterlimit:10;" points="-5674.803,505.379 -5674.803,1430.668 
			-5215.332,1430.668 		"/>
		<g>
			<polygon style="fill:#FFFF00;" points="-5219.708,1445.627 -5193.803,1430.668 -5219.708,1415.709 			"/>
		</g>
	</g>
</g>
<text transform="matrix(1 0 0 1 -5625.8037 470.4425)" style="fill:#FFFF00; font-family:'MyriadPro-Regular'; font-size:60;">NOVY</text>
<text transform="matrix(1 0 0 1 -5625.8037 1374.4425)" style="fill:#FFFF00; font-family:'MyriadPro-Regular'; font-size:60;">EXISTUJE?</text>
<g>
	<g>
		<polyline style="fill:none;stroke:#FFFF00;stroke-width:3;stroke-miterlimit:10;" points="-7085.804,82.219 -7824.591,82.219 
			-7824.591,506.537 -8283.274,506.537 		"/>
		<g>
			<polygon style="fill:#FFFF00;" points="-8278.897,491.578 -8304.803,506.537 -8278.897,521.496 			"/>
		</g>
	</g>
</g>
<g>
	<g>
		<polyline style="fill:none;stroke:#FFFF00;stroke-width:3;stroke-miterlimit:10;" points="-7824.592,505.379 -7824.592,1430.668 
			-8283.274,1430.668 		"/>
		<g>
			<polygon style="fill:#FFFF00;" points="-8278.897,1415.708 -8304.804,1430.668 -8278.897,1445.627 			"/>
		</g>
	</g>
</g>
<text transform="matrix(1 0 0 1 -8003.5625 470.4425)" style="fill:#FFFF00; font-family:'MyriadPro-Regular'; font-size:60;">NOVY</text>
<text transform="matrix(1 0 0 1 -8109.2207 1374.4425)" style="fill:#FFFF00; font-family:'MyriadPro-Regular'; font-size:60;">EXISTUJE?</text>
<rect x="-8926.853" y="1382.668" style="fill:#8CC63F;" width="547.17" height="346"/>
<rect x="-8926.853" y="1474.668" style="fill:none;" width="547.17" height="254"/>
<text transform="matrix(1 0 0 1 -8702.4092 1626.0288)" style="opacity:0.09; font-family:'FontAwesome'; font-size:172;">&#xF041;</text>
<rect x="-8914.268" y="1280.209" style="fill:none;" width="522" height="84.233"/>
<text transform="matrix(1 0 0 1 -8443.6953 1333.0095)" style="font-family:'FontAwesome'; font-size:60;">&#xF013;</text>
<rect x="-8926.853" y="1742.668" style="fill:#8CC63F;" width="547.17" height="346"/>
<rect x="-8926.853" y="1834.668" style="fill:none;" width="547.17" height="254"/>
<text transform="matrix(1 0 0 1 -8745.4092 1986.0288)" style="opacity:0.09; font-family:'FontAwesome'; font-size:172;">&#xF030;</text>
<rect x="-8926.853" y="2102.704" style="fill:#8CC63F;" width="547.17" height="155.828"/>
<rect x="-8926.853" y="2124.704" style="fill:none;" width="547.17" height="150.036"/>
<text transform="matrix(1 0 0 1 -8715.374 2242.1802)" style="opacity:0.09; font-family:'Times-Roman'; font-size:172;">A</text>
<rect x="-8926.853" y="2342.407" style="fill:#C69C6D;" width="547.17" height="346"/>
<rect x="-8926.853" y="2434.407" style="fill:none;" width="547.17" height="254"/>
<text transform="matrix(1 0 0 1 -8702.4092 2585.7678)" style="opacity:0.09; font-family:'FontAwesome'; font-size:172;">&#xF041;</text>
<rect x="-8926.853" y="2702.407" style="fill:#C69C6D;" width="547.17" height="346"/>
<rect x="-8926.853" y="2794.407" style="fill:none;" width="547.17" height="254"/>
<text transform="matrix(1 0 0 1 -8745.4092 2945.7678)" style="opacity:0.09; font-family:'FontAwesome'; font-size:172;">&#xF030;</text>
<rect x="-8926.853" y="3062.443" style="fill:#C69C6D;" width="547.17" height="155.828"/>
<rect x="-8926.853" y="3084.443" style="fill:none;" width="547.17" height="150.036"/>
<text transform="matrix(1 0 0 1 -8715.374 3201.9189)" style="opacity:0.09; font-family:'Times-Roman'; font-size:172;">A</text>
<rect x="-8926.853" y="3313.338" style="fill:#C69C6D;" width="547.17" height="346"/>
<rect x="-8926.853" y="3405.338" style="fill:none;" width="547.17" height="254"/>
<text transform="matrix(1 0 0 1 -8702.4092 3556.699)" style="opacity:0.09; font-family:'FontAwesome'; font-size:172;">&#xF041;</text>
<rect x="-8926.853" y="3673.338" style="fill:#C69C6D;" width="547.17" height="346"/>
<rect x="-8926.853" y="3765.338" style="fill:none;" width="547.17" height="254"/>
<text transform="matrix(1 0 0 1 -8745.4092 3916.699)" style="opacity:0.09; font-family:'FontAwesome'; font-size:172;">&#xF030;</text>
<rect x="-8926.853" y="4033.374" style="fill:#C69C6D;" width="547.17" height="155.828"/>
<rect x="-8926.853" y="4055.374" style="fill:none;" width="547.17" height="150.036"/>
<text transform="matrix(1 0 0 1 -8715.374 4172.8501)" style="opacity:0.09; font-family:'Times-Roman'; font-size:172;">A</text>
<rect x="-8973.268" y="4129.704" style="fill:#FFFFFF;" width="640" height="151.412"/>
<rect x="-8926.853" y="4159.41" style="fill:#8CC63F;" width="547.17" height="92"/>
<rect x="-8914.269" y="4183.41" style="fill:none;" width="522" height="49.498"/>
<text transform="matrix(1 0 0 1 -8670.1426 4213.1104)" style="font-family:'FontAwesome'; font-size:33.75;">&#xF00C;</text>
<g id="_x31_adstS_1_">
	
		<image style="overflow:visible;" width="720" height="1213" id="_x31_adstS" xlink:href="659B3A4DB4DF20F4.jpg"  transform="matrix(1 0 0 1 -7090.2681 -2036.3319)">
	</image>
</g>
<rect x="-6010.735" y="-1556.646" style="fill:#259F6C;" width="301.485" height="440.978"/>
<rect x="-6037.734" y="-1582.151" style="fill:#259F6C;" width="355.482" height="25.505"/>
<rect x="-6010.735" y="-1687.145" style="fill:#259F6C;" width="301.485" height="104.995"/>
<g id="Wu5jjW.tif">
	
		<image style="overflow:visible;" width="72" height="72" id="Layer_0" xlink:href="659B3A4DB4DF20F4.png"  transform="matrix(1 0 0 1 -6003.251 -2005.3199)">
	</image>
</g>
<g id="_x37_GUfMh_1_">
	
		<image style="overflow:visible;" width="72" height="72" id="_x37_GUfMh" xlink:href="659B3A4DB4DF20F3.jpg"  transform="matrix(1 0 0 1 -5754.2515 -2013.3188)">
	</image>
</g>
<g id="j0TU90.tif">
	
		<image style="overflow:visible;" width="108" height="128" id="Layer_0_1_" xlink:href="659B3A4DB4DF20FC.png"  transform="matrix(1 0 0 1 -5547.2749 -2041.3188)">
	</image>
</g>
<g id="K3i1lh_1_">
	
		<image style="overflow:visible;" width="160" height="160" id="K3i1lh" xlink:href="659B3A4DB4DF20FC.jpg"  transform="matrix(1 0 0 1 -5240.2915 -2073.3188)">
	</image>
</g>
<g id="FjOFfE.tif">
	
		<image style="overflow:visible;" width="88" height="105" id="Layer_0_2_" xlink:href="659B3A4DB4DF20FD.png"  transform="matrix(1 0 0 1 -5570.2734 -1836.8319)">
	</image>
</g>
<g id="oKpvom_1_">
	
		<image style="overflow:visible;" width="160" height="160" id="oKpvom" xlink:href="659B3A4DB4DF20F2.jpg"  transform="matrix(1 0 0 1 -5229.792 -1864.3319)">
	</image>
</g>
<g id="tBVbrX.tif">
	
		<image style="overflow:visible;" width="72" height="72" id="Layer_0_3_" xlink:href="659B3A4DB4DF20F5.png"  transform="matrix(1 0 0 1 -6010.7349 -1847.8279)">
	</image>
</g>
<path d="M-1841.312-97.26c-7.919-8.62-15.746-16.921-23.328-25.44c-13.765-15.468-26.106-32.018-36.603-49.878
	c-6.679-11.365-10.151-23.846-11.489-36.893c-2.423-23.62,5.232-43.893,21.479-60.807c10.604-11.039,23.85-17.775,39.04-20.149
	c13.38-2.091,26.466-0.571,38.791,5.178c22.119,10.317,35.877,27.662,41.504,51.286c4.055,17.022,0.754,33.431-5.699,49.292
	c-2.024,4.975-4.563,9.832-7.499,14.33c-16.416,25.151-34.819,48.803-54.595,71.395
	C-1840.092-98.512-1840.506-98.107-1841.312-97.26z"/>
<path d="M-2361.777-97.26c-7.919-8.62-15.746-16.921-23.328-25.44c-13.765-15.468-26.105-32.018-36.603-49.878
	c-6.679-11.365-10.151-23.846-11.49-36.893c-2.423-23.62,5.232-43.893,21.479-60.807c10.604-11.039,23.851-17.775,39.04-20.149
	c13.38-2.091,26.466-0.571,38.79,5.178c22.119,10.317,35.877,27.662,41.504,51.286c4.055,17.022,0.754,33.431-5.698,49.292
	c-2.024,4.975-4.563,9.832-7.5,14.33c-16.416,25.151-34.819,48.803-54.595,71.395C-2360.557-98.512-2360.971-98.107-2361.777-97.26z
	"/>
<g>
	<path d="M-1971.575-774.771c0-11.166,0.113-22.334-0.07-33.497c-0.054-3.298,0.847-6.098,2.697-8.608
		c11.309-15.347,26.664-22.484,45.52-17.689c8.927,2.27,17.573,5.628,26.38,8.384c8.141,2.548,16.395,4.371,25.039,3.568
		c10.427-0.969,18.661-6.122,25.812-13.355c2.324-2.35,4.458-2.836,6.444-0.919c0.74,0.714,1.358,1.963,1.361,2.97
		c0.068,22.832,0.05,45.664,0.013,68.497c-0.002,1.145-0.004,2.47-0.54,3.405c-5.185,9.053-10.598,17.932-19.191,24.326
		c-9.19,6.838-19.528,8.582-30.322,5.848c-9.484-2.402-18.684-5.923-28.008-8.956c-8.602-2.798-17.292-4.817-26.468-3.869
		c-7.854,0.811-14.739,3.93-21.082,8.398c-1.69,1.191-3.31,2.013-5.274,1.052c-1.965-0.961-2.365-2.696-2.35-4.806
		C-1971.533-751.605-1971.575-763.188-1971.575-774.771z"/>
	<path d="M-1988.355-663.111c-5.594,0-10.896,0-16.443,0c-0.04-0.901-0.115-1.794-0.115-2.687
		c-0.005-58.163-0.006-116.326-0.003-174.489c0-4.632,1.266-5.903,5.965-5.903c2.327,0,4.66,0.035,6.98,0.204
		c2.285,0.166,3.308,1.711,3.576,3.822c0.104,0.821,0.04,1.664,0.04,2.497c0.001,57.746,0.001,115.493,0.001,173.239
		C-1988.355-665.364-1988.355-664.301-1988.355-663.111z"/>
</g>
<g>
	<path d="M-2303.095-779.421c50.027,0,99.739,0,149.692,0c0.041,0.917,0.115,1.81,0.115,2.703
		c0.011,43.573,0.023,87.146,0.015,130.719c-0.002,9.042-7.557,16.193-17.308,16.318c-7.247,0.093-14.496,0.02-21.745,0.02
		c-30.909,0-61.819-0.031-92.728,0.023c-7.103,0.013-12.713-2.559-16.054-8.948c-1.114-2.13-1.913-4.714-1.919-7.093
		c-0.108-43.823-0.074-87.646-0.069-131.469C-2303.095-777.81-2303.095-778.473-2303.095-779.421z M-2220.033-704.869
		c0,18.734,0.023,37.467-0.036,56.201c-0.006,1.901,0.433,2.669,2.491,2.583c3.823-0.16,7.666-0.19,11.485,0.007
		c2.417,0.124,3.058-0.65,3.049-3.05c-0.087-24.062-0.052-48.124-0.053-72.187c0-13.072-0.033-26.144,0.036-39.215
		c0.01-1.901-0.434-2.667-2.492-2.583c-3.907,0.159-7.83,0.173-11.736-0.004c-2.219-0.1-2.805,0.596-2.795,2.797
		C-2219.996-741.837-2220.033-723.353-2220.033-704.869z M-2270.004-646.295c0-38.924,0-77.684,0-116.571
		c-5.589,0-11.021,0-16.442,0c0,38.966,0,77.73,0,116.571C-2280.897-646.295-2275.529-646.295-2270.004-646.295z M-2253.282-762.958
		c0,1.242,0,2.225,0,3.208c0,36.727,0,73.455,0,110.182c0,0.666-0.158,1.394,0.06,1.981c0.206,0.556,0.803,1.368,1.241,1.377
		c5.056,0.097,10.115,0.062,15.273,0.062c0-39.085,0-77.903,0-116.81C-2242.215-762.958-2247.517-762.958-2253.282-762.958z
		 M-2170.013-762.858c-5.599,0-11.03,0-16.424,0c0,38.974,0,77.738,0,116.556c5.559,0,10.928,0,16.424,0
		C-2170.013-685.234-2170.013-723.993-2170.013-762.858z"/>
	<path d="M-2269.848-813.016c0-5.398,0.018-10.621-0.004-15.844c-0.041-9.781,6.792-17.117,16.556-17.21
		c16.744-0.159,33.493-0.164,50.237,0.009c9.647,0.1,16.442,7.391,16.434,17.054c-0.005,5.237-0.001,10.474-0.001,16.125
		c1.124,0,2.079,0,3.034,0c13.497,0,26.994-0.003,40.49,0.002c5.347,0.002,6.477,1.121,6.474,6.387
		c-0.002,3.083-0.012,6.165-0.025,9.247c-0.001,0.162-0.065,0.324-0.164,0.787c-0.794,0.044-1.669,0.134-2.545,0.134
		c-59.236,0.007-118.472-0.005-177.708,0.051c-2.162,0.002-2.98-0.504-2.822-2.769c0.196-2.819,0.03-5.662,0.052-8.495
		c0.03-3.867,1.367-5.283,5.281-5.325c6.164-0.066,12.33-0.019,18.495-0.02c7.748,0,15.496,0.004,23.244-0.006
		C-2271.929-812.888-2271.037-812.962-2269.848-813.016z M-2253.123-813.045c16.675,0,33.191,0,49.822,0c0-5.595,0-11.025,0-16.439
		c-16.736,0-33.266,0-49.822,0C-2253.123-823.932-2253.123-818.558-2253.123-813.045z"/>
</g>
<g>
	<path style="fill:#C1272D;" d="M-2394.595-232.305c21.711,0,43.285,0,64.965,0c0.018,0.398,0.05,0.786,0.05,1.173
		c0.005,18.91,0.01,37.821,0.007,56.731c-0.001,3.924-3.28,7.027-7.511,7.082c-3.145,0.04-6.291,0.008-9.437,0.008
		c-13.414,0-26.829-0.014-40.243,0.01c-3.083,0.005-5.517-1.111-6.967-3.883c-0.483-0.925-0.831-2.046-0.833-3.078
		c-0.047-19.019-0.032-38.037-0.03-57.056C-2394.595-231.606-2394.595-231.894-2394.595-232.305z M-2358.547-199.951
		c0,8.13,0.01,16.26-0.015,24.391c-0.003,0.825,0.188,1.158,1.081,1.121c1.659-0.069,3.327-0.082,4.985,0.003
		c1.049,0.054,1.327-0.282,1.323-1.324c-0.038-10.443-0.023-20.885-0.023-31.328c0-5.673-0.014-11.346,0.016-17.019
		c0.004-0.825-0.188-1.157-1.082-1.121c-1.696,0.069-3.398,0.075-5.093-0.002c-0.963-0.044-1.218,0.258-1.213,1.214
		C-2358.531-215.994-2358.547-207.972-2358.547-199.951z M-2380.234-174.53c0-16.893,0-33.714,0-50.591c-2.426,0-4.783,0-7.136,0
		c0,16.911,0,33.734,0,50.591C-2384.961-174.53-2382.631-174.53-2380.234-174.53z M-2372.977-225.161c0,0.539,0,0.966,0,1.392
		c0,15.939,0,31.879,0,47.818c0,0.289-0.069,0.605,0.026,0.86c0.09,0.241,0.349,0.594,0.539,0.597
		c2.194,0.042,4.39,0.027,6.629,0.027c0-16.963,0-33.809,0-50.694C-2368.173-225.161-2370.474-225.161-2372.977-225.161z
		 M-2336.839-225.117c-2.43,0-4.787,0-7.128,0c0,16.914,0,33.737,0,50.584c2.413,0,4.743,0,7.128,0
		C-2336.839-191.429-2336.839-208.25-2336.839-225.117z"/>
	<path style="fill:#C1272D;" d="M-2380.166-246.885c0-2.343,0.008-4.61-0.002-6.876c-0.018-4.245,2.948-7.429,7.185-7.469
		c7.267-0.069,14.536-0.071,21.802,0.004c4.187,0.043,7.136,3.208,7.132,7.401c-0.002,2.273,0,4.546,0,6.998
		c0.488,0,0.902,0,1.317,0c5.857,0,11.715-0.001,17.573,0.001c2.321,0.001,2.811,0.487,2.81,2.772c0,1.338-0.005,2.676-0.011,4.013
		c0,0.07-0.028,0.141-0.071,0.342c-0.344,0.019-0.724,0.058-1.104,0.058c-25.708,0.003-51.416-0.002-77.124,0.022
		c-0.938,0.001-1.293-0.219-1.225-1.202c0.085-1.223,0.013-2.457,0.022-3.687c0.013-1.678,0.594-2.293,2.292-2.311
		c2.675-0.029,5.351-0.008,8.027-0.009c3.363,0,6.725,0.002,10.088-0.002C-2381.069-246.83-2380.682-246.862-2380.166-246.885z
		 M-2372.907-246.898c7.237,0,14.405,0,21.622,0c0-2.428,0-4.785,0-7.134c-7.263,0-14.437,0-21.622,0
		C-2372.907-251.622-2372.907-249.29-2372.907-246.898z"/>
</g>
<path d="M-2201.615-97.26c-7.919-8.62-15.746-16.921-23.327-25.44c-13.765-15.468-26.106-32.018-36.603-49.878
	c-6.679-11.365-10.151-23.846-11.489-36.893c-2.423-23.62,5.232-43.893,21.479-60.807c10.604-11.039,23.851-17.775,39.04-20.149
	c13.38-2.091,26.466-0.571,38.791,5.178c22.119,10.317,35.877,27.662,41.504,51.286c4.055,17.022,0.754,33.431-5.699,49.292
	c-2.024,4.975-4.563,9.832-7.499,14.33c-16.416,25.151-34.819,48.803-54.595,71.395
	C-2200.394-98.512-2200.808-98.107-2201.615-97.26z"/>
<g>
	<path style="fill:#F7931E;" d="M-2234.432-232.305c21.711,0,43.286,0,64.965,0c0.018,0.398,0.05,0.786,0.05,1.173
		c0.005,18.91,0.01,37.821,0.007,56.731c-0.001,3.924-3.28,7.027-7.511,7.082c-3.145,0.04-6.291,0.008-9.437,0.008
		c-13.414,0-26.829-0.014-40.243,0.01c-3.083,0.005-5.517-1.111-6.967-3.883c-0.483-0.925-0.83-2.046-0.833-3.078
		c-0.047-19.019-0.032-38.037-0.03-57.056C-2234.432-231.606-2234.432-231.894-2234.432-232.305z M-2198.384-199.951
		c0,8.13,0.01,16.26-0.016,24.391c-0.002,0.825,0.188,1.158,1.081,1.121c1.659-0.069,3.327-0.082,4.985,0.003
		c1.049,0.054,1.327-0.282,1.323-1.324c-0.038-10.443-0.023-20.885-0.023-31.328c0-5.673-0.014-11.346,0.016-17.019
		c0.004-0.825-0.188-1.157-1.082-1.121c-1.696,0.069-3.398,0.075-5.093-0.002c-0.963-0.044-1.217,0.258-1.213,1.214
		C-2198.368-215.994-2198.384-207.972-2198.384-199.951z M-2220.071-174.53c0-16.893,0-33.714,0-50.591c-2.426,0-4.783,0-7.136,0
		c0,16.911,0,33.734,0,50.591C-2224.798-174.53-2222.469-174.53-2220.071-174.53z M-2212.814-225.161c0,0.539,0,0.966,0,1.392
		c0,15.939,0,31.879,0,47.818c0,0.289-0.069,0.605,0.026,0.86c0.09,0.241,0.348,0.594,0.539,0.597
		c2.194,0.042,4.39,0.027,6.629,0.027c0-16.963,0-33.809,0-50.694C-2208.011-225.161-2210.312-225.161-2212.814-225.161z
		 M-2176.676-225.117c-2.43,0-4.787,0-7.128,0c0,16.914,0,33.737,0,50.584c2.413,0,4.743,0,7.128,0
		C-2176.676-191.429-2176.676-208.25-2176.676-225.117z"/>
	<path style="fill:#F7931E;" d="M-2220.003-246.885c0-2.343,0.008-4.61-0.002-6.876c-0.018-4.245,2.948-7.429,7.185-7.469
		c7.267-0.069,14.535-0.071,21.802,0.004c4.187,0.043,7.136,3.208,7.132,7.401c-0.002,2.273,0,4.546,0,6.998
		c0.488,0,0.902,0,1.317,0c5.858,0,11.715-0.001,17.573,0.001c2.321,0.001,2.811,0.487,2.81,2.772
		c-0.001,1.338-0.005,2.676-0.011,4.013c0,0.07-0.028,0.141-0.071,0.342c-0.344,0.019-0.724,0.058-1.104,0.058
		c-25.708,0.003-51.416-0.002-77.124,0.022c-0.938,0.001-1.293-0.219-1.225-1.202c0.085-1.223,0.013-2.457,0.022-3.687
		c0.013-1.678,0.593-2.293,2.292-2.311c2.675-0.029,5.351-0.008,8.027-0.009c3.363,0,6.725,0.002,10.088-0.002
		C-2220.906-246.83-2220.519-246.862-2220.003-246.885z M-2212.745-246.898c7.237,0,14.404,0,21.622,0c0-2.428,0-4.785,0-7.134
		c-7.263,0-14.437,0-21.622,0C-2212.745-251.622-2212.745-249.29-2212.745-246.898z"/>
</g>
<path d="M-2043.037-97.26c-7.919-8.62-15.746-16.921-23.328-25.44c-13.764-15.468-26.105-32.018-36.603-49.878
	c-6.679-11.365-10.151-23.846-11.489-36.893c-2.424-23.62,5.232-43.893,21.479-60.807c10.604-11.039,23.851-17.775,39.04-20.149
	c13.38-2.091,26.466-0.571,38.791,5.178c22.119,10.317,35.877,27.662,41.504,51.286c4.055,17.022,0.754,33.431-5.699,49.292
	c-2.024,4.975-4.563,9.832-7.499,14.33c-16.416,25.151-34.819,48.803-54.595,71.395C-2041.816-98.512-2042.23-98.107-2043.037-97.26
	z"/>
<g>
	<path style="fill:#39B54A;" d="M-2075.854-232.305c21.711,0,43.286,0,64.965,0c0.018,0.398,0.05,0.786,0.05,1.173
		c0.005,18.91,0.01,37.821,0.007,56.731c-0.001,3.924-3.28,7.027-7.511,7.082c-3.145,0.04-6.291,0.008-9.437,0.008
		c-13.414,0-26.829-0.014-40.243,0.01c-3.083,0.005-5.517-1.111-6.967-3.883c-0.483-0.925-0.83-2.046-0.833-3.078
		c-0.047-19.019-0.032-38.037-0.03-57.056C-2075.854-231.606-2075.854-231.894-2075.854-232.305z M-2039.806-199.951
		c0,8.13,0.01,16.26-0.016,24.391c-0.003,0.825,0.188,1.158,1.081,1.121c1.659-0.069,3.327-0.082,4.984,0.003
		c1.049,0.054,1.327-0.282,1.323-1.324c-0.038-10.443-0.023-20.885-0.023-31.328c0-5.673-0.014-11.346,0.016-17.019
		c0.004-0.825-0.188-1.157-1.082-1.121c-1.695,0.069-3.398,0.075-5.093-0.002c-0.963-0.044-1.217,0.258-1.213,1.214
		C-2039.79-215.994-2039.806-207.972-2039.806-199.951z M-2061.493-174.53c0-16.893,0-33.714,0-50.591c-2.426,0-4.783,0-7.136,0
		c0,16.911,0,33.734,0,50.591C-2066.22-174.53-2063.891-174.53-2061.493-174.53z M-2054.236-225.161c0,0.539,0,0.966,0,1.392
		c0,15.939,0,31.879,0,47.818c0,0.289-0.068,0.605,0.026,0.86c0.09,0.241,0.348,0.594,0.539,0.597
		c2.194,0.042,4.39,0.027,6.629,0.027c0-16.963,0-33.809,0-50.694C-2049.433-225.161-2051.733-225.161-2054.236-225.161z
		 M-2018.098-225.117c-2.43,0-4.787,0-7.128,0c0,16.914,0,33.737,0,50.584c2.413,0,4.743,0,7.128,0
		C-2018.098-191.429-2018.098-208.25-2018.098-225.117z"/>
	<path style="fill:#39B54A;" d="M-2061.425-246.885c0-2.343,0.008-4.61-0.002-6.876c-0.018-4.245,2.948-7.429,7.185-7.469
		c7.267-0.069,14.535-0.071,21.802,0.004c4.187,0.043,7.136,3.208,7.132,7.401c-0.002,2.273,0,4.546,0,6.998
		c0.488,0,0.902,0,1.317,0c5.857,0,11.715-0.001,17.572,0.001c2.321,0.001,2.811,0.487,2.81,2.772
		c-0.001,1.338-0.005,2.676-0.011,4.013c0,0.07-0.028,0.141-0.071,0.342c-0.344,0.019-0.724,0.058-1.104,0.058
		c-25.708,0.003-51.416-0.002-77.124,0.022c-0.938,0.001-1.293-0.219-1.225-1.202c0.085-1.223,0.013-2.457,0.022-3.687
		c0.013-1.678,0.594-2.293,2.292-2.311c2.675-0.029,5.351-0.008,8.027-0.009c3.363,0,6.725,0.002,10.088-0.002
		C-2062.328-246.83-2061.941-246.862-2061.425-246.885z M-2054.167-246.898c7.237,0,14.404,0,21.622,0c0-2.428,0-4.785,0-7.134
		c-7.263,0-14.437,0-21.622,0C-2054.167-251.622-2054.167-249.29-2054.167-246.898z"/>
</g>
<path style="fill:#A67C52;" d="M-1797.868-193.733c-0.925-3.668-3.161-6.226-6.465-7.854c-1.324-0.652-2.813-0.974-4.233-1.425
	c-0.582-0.185-1.005-0.351-0.573-1.1c0.488-0.846,0.991-1.711,1.29-2.632c1.07-3.305,0.554-6.58-0.907-9.575
	c-1.578-3.234-4.482-5.005-7.982-5.763c-1.216-0.263-1.47-0.751-0.939-1.878c1.654-3.514,0.561-7.992-2.443-10.23
	c-2.26-1.684-4.859-2.384-7.582-2.751c-0.991-0.134-1.194-0.393-0.792-1.261c1.132-2.447,0.965-4.895,0.058-7.361
	c-0.883-2.401-2.56-4.239-4.261-6.056c-2.567-2.742-5.461-5.114-8.653-7.068c-2.86-1.751-5.735-3.575-9.186-3.983
	c-0.503-0.06-1.036,0.146-1.555,0.229c0.127,0.49,0.173,1.022,0.398,1.462c0.655,1.284,1.121,2.608,0.615,4.019
	c-0.356,0.992-0.897,1.923-1.4,2.857c-1.037,1.926-2.212,3.788-3.102,5.778c-0.34,0.76-0.181,1.822-0.021,2.705
	c0.139,0.761,0.602,1.464,0.922,2.192c0.239,0.542,0.184,0.966-0.443,1.196c-0.646,0.237-1.272,0.534-1.928,0.738
	c-2.413,0.751-4.427,2.148-6.08,3.996c-2.13,2.381-3.644,5.129-3.453,8.433c0.096,1.661,0.554,3.323,1.016,4.936
	c0.405,1.411,0.263,1.783-1.144,2.079c-2.036,0.429-3.853,1.358-5.402,2.734c-1.694,1.505-2.696,3.4-3.305,5.619
	c-0.5,1.822-0.627,3.641-0.4,5.429c0.173,1.361,0.81,2.71,1.459,3.95c0.472,0.901,0.536,1.013-0.459,1.328
	c-1.42,0.449-2.879,0.848-4.203,1.507c-2.072,1.031-3.808,2.502-5.025,4.543c-1.691,2.837-2.15,5.917-1.723,9.109
	c0.29,2.169,0.984,4.256,2.496,5.953c0.945,1.061,2.068,1.853,3.469,2.199c1.62,0.4,3.223,0.958,4.868,1.156
	c4.234,0.511,8.269-1.02,12.407-1.515c4.785-0.573,9.445-0.422,14.167,0.34c3.367,0.543,6.773,0.95,10.177,1.132
	c3.585,0.191,7.188,0.043,10.783,0.043c0,0.016,0,0.033,0,0.049c2.596,0,5.194,0.033,7.79-0.012c1.66-0.028,3.329-0.08,4.973-0.286
	c1.866-0.234,3.699-0.73,5.564-0.972c2.57-0.333,4.939-1.171,7.121-2.539c1.909-1.197,3.289-2.829,4.048-4.992
	C-1797.147-189.44-1797.318-191.55-1797.868-193.733z"/>
<g id="bAjkvs.tif">
	
		<image style="overflow:visible;" width="798" height="1256" id="Layer_0_4_" xlink:href="659B3A4DB4DF20F7.png"  transform="matrix(0.5 0 0 0.5 -1680.304 -433.3318)">
	</image>
</g>
<path style="fill:#4A2F2B;" d="M-1529.631-45.558c-4.97-5.41-9.883-10.621-14.642-15.968c-8.64-9.709-16.386-20.097-22.974-31.307
	c-4.192-7.133-6.371-14.967-7.211-23.156c-1.521-14.825,3.284-27.55,13.482-38.167c6.656-6.929,14.97-11.157,24.504-12.647
	c8.398-1.313,16.612-0.358,24.348,3.25c13.883,6.475,22.519,17.363,26.051,32.191c2.545,10.684,0.473,20.983-3.577,30.939
	c-1.27,3.123-2.864,6.171-4.707,8.994c-10.304,15.787-21.855,30.632-34.268,44.812C-1528.865-46.344-1529.125-46.09-1529.631-45.558
	z"/>
<path style="fill:#A67C52;" d="M-1502.363-106.111c-0.58-2.303-1.984-3.908-4.058-4.93c-0.831-0.41-1.766-0.612-2.657-0.894
	c-0.365-0.116-0.631-0.22-0.359-0.69c0.306-0.531,0.622-1.074,0.809-1.652c0.671-2.074,0.348-4.13-0.569-6.01
	c-0.99-2.03-2.813-3.142-5.01-3.617c-0.763-0.165-0.922-0.471-0.589-1.178c1.038-2.205,0.352-5.016-1.534-6.421
	c-1.419-1.057-3.05-1.497-4.759-1.727c-0.622-0.084-0.749-0.246-0.497-0.792c0.711-1.536,0.606-3.072,0.037-4.62
	c-0.554-1.507-1.607-2.661-2.674-3.801c-1.611-1.721-3.428-3.21-5.431-4.437c-1.795-1.099-3.6-2.244-5.766-2.5
	c-0.315-0.037-0.651,0.092-0.976,0.144c0.08,0.308,0.109,0.641,0.25,0.918c0.411,0.806,0.704,1.637,0.386,2.523
	c-0.224,0.623-0.563,1.207-0.879,1.793c-0.651,1.209-1.388,2.378-1.947,3.627c-0.214,0.477-0.114,1.144-0.013,1.698
	c0.087,0.478,0.378,0.919,0.579,1.376c0.15,0.34,0.116,0.606-0.278,0.751c-0.406,0.149-0.799,0.335-1.21,0.463
	c-1.514,0.471-2.779,1.348-3.816,2.508c-1.337,1.494-2.287,3.219-2.167,5.293c0.06,1.043,0.348,2.085,0.638,3.098
	c0.254,0.886,0.165,1.119-0.718,1.305c-1.278,0.269-2.419,0.853-3.391,1.716c-1.064,0.945-1.693,2.134-2.074,3.527
	c-0.314,1.144-0.394,2.285-0.251,3.407c0.109,0.855,0.508,1.701,0.916,2.479c0.296,0.565,0.336,0.636-0.288,0.834
	c-0.891,0.282-1.807,0.532-2.638,0.946c-1.301,0.647-2.39,1.57-3.154,2.852c-1.061,1.781-1.349,3.714-1.081,5.717
	c0.182,1.361,0.617,2.672,1.566,3.736c0.594,0.666,1.298,1.163,2.177,1.38c1.017,0.251,2.023,0.601,3.055,0.726
	c2.658,0.321,5.19-0.64,7.787-0.951c3.003-0.359,5.928-0.265,8.892,0.213c2.113,0.341,4.251,0.596,6.388,0.711
	c2.25,0.12,4.511,0.027,6.768,0.027c0,0.01,0,0.02,0,0.031c1.63,0,3.26,0.021,4.889-0.007c1.042-0.018,2.089-0.05,3.121-0.18
	c1.171-0.147,2.322-0.458,3.493-0.61c1.613-0.209,3.1-0.735,4.469-1.594c1.198-0.751,2.064-1.776,2.541-3.133
	C-1501.91-103.416-1502.018-104.741-1502.363-106.111z"/>
<ellipse style="fill:#4A2F2B;" cx="-1597.804" cy="103.335" rx="27.333" ry="26"/>
<path style="fill:none;stroke:#A67C52;stroke-miterlimit:10;" d="M-1578.234,112.321c-0.413-1.64-1.413-2.783-2.889-3.51
	c-0.592-0.292-1.257-0.435-1.892-0.637c-0.26-0.083-0.449-0.157-0.256-0.492c0.218-0.378,0.443-0.765,0.576-1.176
	c0.478-1.477,0.248-2.941-0.405-4.279c-0.705-1.446-2.003-2.237-3.567-2.576c-0.543-0.118-0.657-0.336-0.42-0.839
	c0.739-1.57,0.251-3.572-1.092-4.572c-1.01-0.753-2.172-1.066-3.389-1.23c-0.443-0.06-0.533-0.175-0.354-0.564
	c0.506-1.093,0.431-2.188,0.026-3.29c-0.395-1.073-1.144-1.895-1.904-2.706c-1.147-1.225-2.441-2.286-3.867-3.159
	c-1.278-0.783-2.563-1.598-4.106-1.78c-0.225-0.027-0.463,0.065-0.695,0.102c0.057,0.219,0.077,0.457,0.178,0.654
	c0.292,0.574,0.501,1.166,0.275,1.796c-0.159,0.443-0.401,0.859-0.626,1.277c-0.463,0.861-0.988,1.693-1.386,2.583
	c-0.152,0.34-0.081,0.814-0.009,1.209c0.062,0.34,0.269,0.654,0.412,0.979c0.107,0.242,0.082,0.432-0.198,0.535
	c-0.289,0.106-0.569,0.238-0.862,0.33c-1.078,0.336-1.979,0.96-2.718,1.786c-0.952,1.064-1.628,2.292-1.543,3.769
	c0.043,0.742,0.248,1.485,0.454,2.206c0.181,0.631,0.118,0.797-0.511,0.929c-0.91,0.192-1.722,0.607-2.414,1.222
	c-0.757,0.673-1.205,1.519-1.477,2.511c-0.223,0.814-0.28,1.627-0.179,2.426c0.077,0.608,0.362,1.211,0.652,1.765
	c0.211,0.403,0.24,0.453-0.205,0.594c-0.634,0.201-1.287,0.379-1.878,0.674c-0.926,0.461-1.702,1.118-2.246,2.031
	c-0.756,1.268-0.961,2.645-0.77,4.071c0.13,0.969,0.44,1.902,1.115,2.66c0.423,0.474,0.924,0.828,1.55,0.983
	c0.724,0.179,1.44,0.428,2.176,0.517c1.893,0.228,3.695-0.456,5.545-0.677c2.138-0.256,4.221-0.189,6.331,0.152
	c1.505,0.243,3.027,0.425,4.549,0.506c1.602,0.086,3.212,0.019,4.819,0.019c0,0.007,0,0.015,0,0.022
	c1.161,0,2.321,0.015,3.481-0.005c0.742-0.013,1.488-0.036,2.223-0.128c0.834-0.105,1.653-0.326,2.487-0.435
	c1.149-0.149,2.207-0.523,3.182-1.135c0.853-0.535,1.47-1.264,1.809-2.231C-1577.911,114.239-1577.988,113.296-1578.234,112.321z"/>
<g id="Lp7F4e.tif">
	
		<image style="overflow:visible;" width="826" height="1306" id="Layer_0_5_" xlink:href="AF6F6D3B243FC393.png"  transform="matrix(0.5 0 0 0.5 -1201.8386 -417.0003)">
	</image>
</g>
<circle style="fill:#39B54A;" cx="-1125.482" cy="129.335" r="31.125"/>
<circle style="fill:#39B54A;" cx="-925.982" cy="129.335" r="31.125"/>
<path style="fill:#FFFFFF;" d="M-1108.429,136.779c-0.36-1.429-1.231-2.425-2.518-3.059c-0.516-0.254-1.095-0.379-1.649-0.555
	c-0.227-0.072-0.391-0.137-0.223-0.428c0.19-0.329,0.386-0.666,0.502-1.025c0.417-1.287,0.216-2.563-0.353-3.729
	c-0.614-1.26-1.745-1.949-3.108-2.244c-0.473-0.102-0.572-0.292-0.366-0.731c0.644-1.368,0.218-3.112-0.951-3.984
	c-0.88-0.656-1.892-0.929-2.953-1.071c-0.386-0.052-0.465-0.153-0.308-0.491c0.441-0.953,0.376-1.906,0.023-2.866
	c-0.344-0.935-0.997-1.651-1.659-2.358c-1-1.068-2.127-1.992-3.37-2.753c-1.114-0.682-2.233-1.392-3.578-1.551
	c-0.196-0.023-0.404,0.057-0.606,0.089c0.05,0.191,0.067,0.398,0.155,0.57c0.255,0.5,0.437,1.016,0.239,1.565
	c-0.139,0.386-0.349,0.749-0.545,1.113c-0.404,0.75-0.861,1.475-1.208,2.25c-0.133,0.296-0.071,0.71-0.008,1.053
	c0.054,0.296,0.234,0.57,0.359,0.853c0.093,0.211,0.072,0.376-0.172,0.466c-0.252,0.092-0.495,0.208-0.751,0.287
	c-0.94,0.292-1.724,0.836-2.368,1.556c-0.829,0.927-1.419,1.997-1.344,3.284c0.037,0.647,0.216,1.294,0.396,1.922
	c0.158,0.55,0.102,0.694-0.445,0.81c-0.793,0.167-1.501,0.529-2.104,1.065c-0.66,0.586-1.05,1.324-1.287,2.188
	c-0.195,0.71-0.244,1.418-0.156,2.114c0.067,0.53,0.315,1.055,0.568,1.538c0.184,0.351,0.209,0.395-0.179,0.517
	c-0.553,0.175-1.121,0.33-1.637,0.587c-0.807,0.402-1.483,0.974-1.957,1.769c-0.658,1.105-0.837,2.304-0.671,3.547
	c0.113,0.845,0.383,1.658,0.972,2.318c0.368,0.413,0.805,0.722,1.351,0.856c0.631,0.156,1.255,0.373,1.896,0.45
	c1.649,0.199,3.22-0.397,4.832-0.59c1.863-0.223,3.678-0.164,5.517,0.132c1.311,0.212,2.638,0.37,3.963,0.441
	c1.396,0.075,2.799,0.017,4.199,0.017c0,0.006,0,0.013,0,0.019c1.011,0,2.023,0.013,3.033-0.005
	c0.646-0.011,1.296-0.031,1.937-0.112c0.727-0.091,1.44-0.284,2.167-0.379c1.001-0.13,1.923-0.456,2.773-0.989
	c0.744-0.466,1.281-1.102,1.577-1.944C-1108.148,138.45-1108.215,137.629-1108.429,136.779z"/>
<path style="fill:#4A2F2B;" d="M-995.123,15.345c-4.97-5.41-9.883-10.621-14.642-15.968c-8.64-9.709-16.386-20.097-22.974-31.307
	c-4.193-7.133-6.371-14.967-7.212-23.156c-1.521-14.825,3.284-27.55,13.482-38.167c6.656-6.929,14.97-11.157,24.504-12.647
	c8.398-1.313,16.612-0.358,24.348,3.25c13.883,6.475,22.519,17.363,26.051,32.191c2.545,10.684,0.473,20.983-3.577,30.939
	c-1.27,3.123-2.864,6.171-4.707,8.994c-10.304,15.787-21.855,30.632-34.268,44.812C-994.357,14.559-994.617,14.813-995.123,15.345z"
	/>
<path style="fill:#A67C52;" d="M-967.854-45.208c-0.58-2.303-1.984-3.908-4.058-4.93c-0.831-0.41-1.765-0.612-2.657-0.894
	c-0.365-0.116-0.631-0.22-0.359-0.69c0.306-0.531,0.622-1.074,0.809-1.652c0.671-2.074,0.348-4.13-0.569-6.01
	c-0.99-2.03-2.813-3.142-5.01-3.617c-0.763-0.165-0.922-0.471-0.589-1.178c1.038-2.205,0.352-5.016-1.534-6.421
	c-1.419-1.057-3.05-1.497-4.759-1.727c-0.622-0.084-0.749-0.246-0.497-0.792c0.711-1.536,0.606-3.072,0.037-4.62
	c-0.554-1.507-1.607-2.661-2.674-3.801c-1.611-1.721-3.428-3.21-5.431-4.437c-1.795-1.099-3.6-2.244-5.766-2.5
	c-0.315-0.037-0.65,0.092-0.976,0.144c0.08,0.308,0.109,0.641,0.25,0.918c0.411,0.806,0.704,1.637,0.386,2.523
	c-0.224,0.623-0.563,1.207-0.879,1.793c-0.651,1.209-1.388,2.378-1.947,3.627c-0.214,0.477-0.114,1.144-0.013,1.698
	c0.087,0.478,0.378,0.919,0.579,1.376c0.15,0.34,0.116,0.606-0.278,0.751c-0.406,0.149-0.799,0.335-1.21,0.463
	c-1.514,0.471-2.779,1.348-3.816,2.508c-1.337,1.494-2.287,3.219-2.167,5.293c0.06,1.043,0.348,2.085,0.638,3.098
	c0.254,0.886,0.165,1.119-0.718,1.305c-1.278,0.269-2.419,0.853-3.391,1.716c-1.064,0.945-1.693,2.134-2.074,3.527
	c-0.314,1.144-0.394,2.285-0.251,3.407c0.109,0.855,0.508,1.701,0.916,2.479c0.296,0.565,0.336,0.636-0.288,0.834
	c-0.891,0.282-1.807,0.532-2.638,0.946c-1.301,0.647-2.39,1.57-3.154,2.852c-1.061,1.781-1.349,3.714-1.081,5.717
	c0.182,1.361,0.617,2.672,1.566,3.736c0.593,0.666,1.298,1.163,2.177,1.38c1.017,0.251,2.023,0.601,3.055,0.726
	c2.658,0.321,5.19-0.64,7.787-0.951c3.003-0.359,5.928-0.265,8.892,0.213c2.113,0.341,4.252,0.596,6.388,0.711
	c2.25,0.12,4.511,0.027,6.768,0.027c0,0.01,0,0.02,0,0.031c1.63,0,3.26,0.021,4.889-0.007c1.042-0.018,2.089-0.05,3.122-0.18
	c1.171-0.147,2.322-0.458,3.493-0.61c1.613-0.209,3.1-0.735,4.469-1.594c1.198-0.751,2.064-1.776,2.541-3.133
	C-967.401-42.513-967.509-43.838-967.854-45.208z"/>
<g>
	<path style="fill:#FFFFFF;" d="M-938.433,121.43c8.325,0,16.597,0,24.91,0c0.007,0.153,0.019,0.301,0.019,0.45
		c0.002,7.251,0.004,14.502,0.003,21.753c0,1.505-1.258,2.695-2.88,2.715c-1.206,0.016-2.412,0.003-3.618,0.003
		c-5.144,0-10.287-0.005-15.431,0.004c-1.182,0.002-2.116-0.426-2.671-1.489c-0.185-0.355-0.318-0.784-0.319-1.18
		c-0.018-7.292-0.012-14.585-0.012-21.877C-938.433,121.698-938.433,121.588-938.433,121.43z M-924.611,133.836
		c0,3.117,0.004,6.235-0.006,9.352c-0.001,0.316,0.072,0.444,0.415,0.43c0.636-0.027,1.276-0.032,1.911,0.001
		c0.402,0.021,0.509-0.108,0.507-0.508c-0.014-4.004-0.009-8.008-0.009-12.012c0-2.175-0.005-4.351,0.006-6.526
		c0.002-0.316-0.072-0.444-0.415-0.43c-0.65,0.026-1.303,0.029-1.953-0.001c-0.369-0.017-0.467,0.099-0.465,0.465
		C-924.605,127.684-924.611,130.76-924.611,133.836z M-932.927,143.583c0-6.477,0-12.927,0-19.398c-0.93,0-1.834,0-2.736,0
		c0,6.484,0,12.935,0,19.398C-934.74,143.583-933.846,143.583-932.927,143.583z M-930.144,124.17c0,0.207,0,0.37,0,0.534
		c0,6.112,0,12.223,0,18.335c0,0.111-0.026,0.232,0.01,0.33c0.034,0.093,0.134,0.228,0.206,0.229c0.841,0.016,1.683,0.01,2.542,0.01
		c0-6.504,0-12.964,0-19.438C-928.303,124.17-929.185,124.17-930.144,124.17z M-916.288,124.186c-0.932,0-1.835,0-2.733,0
		c0,6.486,0,12.936,0,19.396c0.925,0,1.818,0,2.733,0C-916.288,137.104-916.288,130.654-916.288,124.186z"/>
	<path style="fill:#FFFFFF;" d="M-932.901,115.84c0-0.898,0.003-1.767-0.001-2.637c-0.007-1.628,1.13-2.848,2.755-2.864
		c2.786-0.027,5.573-0.027,8.36,0.002c1.605,0.017,2.736,1.23,2.735,2.838c-0.001,0.871,0,1.743,0,2.683c0.187,0,0.346,0,0.505,0
		c2.246,0,4.492,0,6.738,0c0.89,0,1.078,0.187,1.077,1.063c0,0.513-0.002,1.026-0.004,1.539c0,0.027-0.011,0.054-0.027,0.131
		c-0.132,0.007-0.278,0.022-0.423,0.022c-9.857,0.001-19.715-0.001-29.572,0.008c-0.36,0-0.496-0.084-0.47-0.461
		c0.033-0.469,0.005-0.942,0.009-1.414c0.005-0.644,0.228-0.879,0.879-0.886c1.026-0.011,2.052-0.003,3.078-0.003
		c1.289,0,2.579,0.001,3.868-0.001C-933.247,115.861-933.099,115.849-932.901,115.84z M-930.118,115.835c2.775,0,5.523,0,8.291,0
		c0-0.931,0-1.835,0-2.736c-2.785,0-5.536,0-8.291,0C-930.118,114.023-930.118,114.918-930.118,115.835z"/>
</g>
<g id="Lp7F4e.tif_1_">
	
		<image style="overflow:visible;" width="826" height="1306" id="Layer_0_6_" xlink:href="AF6F6D3B243FC391.png"  transform="matrix(0.5 0 0 0.5 -747.3614 -417.0003)">
	</image>
</g>
<circle style="opacity:0.81;fill:#39B54A;" cx="-671.005" cy="129.335" r="31.125"/>
<circle style="opacity:0.81;fill:#39B54A;" cx="-471.505" cy="129.335" r="31.125"/>
<path style="fill:#FFFFFF;" d="M-653.952,136.779c-0.36-1.429-1.231-2.425-2.518-3.059c-0.516-0.254-1.095-0.379-1.649-0.555
	c-0.227-0.072-0.391-0.137-0.223-0.428c0.19-0.329,0.386-0.666,0.502-1.025c0.417-1.287,0.216-2.563-0.353-3.729
	c-0.614-1.26-1.745-1.949-3.108-2.244c-0.473-0.102-0.572-0.292-0.366-0.731c0.644-1.368,0.218-3.112-0.951-3.984
	c-0.88-0.656-1.892-0.929-2.953-1.071c-0.386-0.052-0.465-0.153-0.308-0.491c0.441-0.953,0.376-1.906,0.023-2.866
	c-0.344-0.935-0.997-1.651-1.659-2.358c-1-1.068-2.127-1.992-3.37-2.753c-1.114-0.682-2.233-1.392-3.577-1.551
	c-0.196-0.023-0.404,0.057-0.606,0.089c0.05,0.191,0.067,0.398,0.155,0.57c0.255,0.5,0.437,1.016,0.239,1.565
	c-0.139,0.386-0.349,0.749-0.545,1.113c-0.404,0.75-0.861,1.475-1.208,2.25c-0.133,0.296-0.071,0.71-0.008,1.053
	c0.054,0.296,0.234,0.57,0.359,0.853c0.093,0.211,0.072,0.376-0.172,0.466c-0.252,0.092-0.495,0.208-0.751,0.287
	c-0.94,0.292-1.724,0.836-2.368,1.556c-0.829,0.927-1.419,1.997-1.345,3.284c0.037,0.647,0.216,1.294,0.396,1.922
	c0.158,0.55,0.102,0.694-0.445,0.81c-0.793,0.167-1.501,0.529-2.104,1.065c-0.66,0.586-1.05,1.324-1.287,2.188
	c-0.195,0.71-0.244,1.418-0.156,2.114c0.067,0.53,0.315,1.055,0.568,1.538c0.184,0.351,0.209,0.395-0.179,0.517
	c-0.553,0.175-1.121,0.33-1.637,0.587c-0.807,0.402-1.483,0.974-1.957,1.769c-0.658,1.105-0.837,2.304-0.671,3.547
	c0.113,0.845,0.383,1.658,0.972,2.318c0.368,0.413,0.805,0.722,1.351,0.856c0.631,0.156,1.255,0.373,1.896,0.45
	c1.649,0.199,3.22-0.397,4.832-0.59c1.863-0.223,3.678-0.164,5.517,0.132c1.311,0.212,2.638,0.37,3.963,0.441
	c1.396,0.075,2.799,0.017,4.199,0.017c0,0.006,0,0.013,0,0.019c1.011,0,2.023,0.013,3.034-0.005
	c0.646-0.011,1.296-0.031,1.937-0.112c0.727-0.091,1.44-0.284,2.167-0.379c1.001-0.13,1.924-0.456,2.773-0.989
	c0.744-0.466,1.281-1.102,1.577-1.944C-653.671,138.45-653.738,137.629-653.952,136.779z"/>
<path style="fill:#4A2F2B;" d="M-556.549-76.309c-3.356-3.653-6.672-7.17-9.885-10.78c-5.833-6.555-11.062-13.568-15.51-21.136
	c-2.83-4.816-4.301-10.105-4.869-15.633c-1.027-10.009,2.217-18.6,9.102-25.767c4.493-4.678,10.107-7.532,16.543-8.538
	c5.67-0.886,11.215-0.242,16.438,2.194c9.373,4.372,15.203,11.722,17.588,21.732c1.718,7.213,0.319,14.166-2.415,20.888
	c-0.858,2.108-1.934,4.166-3.178,6.072c-6.956,10.658-14.755,20.68-23.135,30.254C-556.032-76.84-556.207-76.668-556.549-76.309z"/>
<path style="fill:#4A2F2B;" d="M-505.553,68.691c-1.769-1.925-3.517-3.779-5.21-5.682c-3.074-3.455-5.831-7.151-8.175-11.14
	c-1.492-2.538-2.267-5.326-2.566-8.24c-0.541-5.275,1.169-9.803,4.797-13.581c2.368-2.465,5.327-3.97,8.719-4.5
	c2.988-0.467,5.911-0.128,8.664,1.156c4.94,2.304,8.013,6.178,9.27,11.454c0.906,3.802,0.168,7.467-1.273,11.009
	c-0.452,1.111-1.019,2.196-1.675,3.2c-3.666,5.617-7.777,10.9-12.194,15.946C-505.28,68.411-505.373,68.502-505.553,68.691z"/>
<path style="fill:#A67C52;" d="M-495.85,47.144c-0.206-0.819-0.706-1.391-1.444-1.754c-0.296-0.146-0.628-0.218-0.945-0.318
	c-0.13-0.041-0.224-0.078-0.128-0.246c0.109-0.189,0.221-0.382,0.288-0.588c0.239-0.738,0.124-1.47-0.203-2.139
	c-0.352-0.722-1.001-1.118-1.783-1.287c-0.272-0.059-0.328-0.168-0.21-0.419c0.369-0.785,0.125-1.785-0.546-2.285
	c-0.505-0.376-1.085-0.533-1.693-0.614c-0.221-0.03-0.267-0.088-0.177-0.282c0.253-0.546,0.216-1.093,0.013-1.644
	c-0.197-0.536-0.572-0.947-0.952-1.353c-0.573-0.612-1.22-1.142-1.933-1.579c-0.639-0.391-1.281-0.798-2.052-0.89
	c-0.112-0.013-0.231,0.033-0.347,0.051c0.028,0.109,0.039,0.228,0.089,0.327c0.146,0.287,0.25,0.582,0.137,0.898
	c-0.08,0.222-0.2,0.429-0.313,0.638c-0.232,0.43-0.494,0.846-0.693,1.291c-0.076,0.17-0.04,0.407-0.005,0.604
	c0.031,0.17,0.134,0.327,0.206,0.489c0.053,0.121,0.041,0.216-0.099,0.267c-0.144,0.053-0.284,0.119-0.431,0.165
	c-0.539,0.168-0.989,0.48-1.358,0.893c-0.476,0.532-0.814,1.146-0.771,1.884c0.021,0.371,0.124,0.742,0.227,1.102
	c0.09,0.315,0.059,0.398-0.255,0.464c-0.455,0.096-0.861,0.303-1.206,0.611c-0.378,0.336-0.602,0.759-0.738,1.255
	c-0.112,0.407-0.14,0.813-0.089,1.212c0.039,0.304,0.181,0.605,0.326,0.882c0.106,0.201,0.12,0.226-0.103,0.297
	c-0.317,0.1-0.643,0.189-0.939,0.337c-0.463,0.23-0.85,0.559-1.122,1.015c-0.378,0.634-0.48,1.322-0.385,2.034
	c0.065,0.484,0.22,0.951,0.557,1.329c0.211,0.237,0.462,0.414,0.775,0.491c0.362,0.089,0.72,0.214,1.087,0.258
	c0.946,0.114,1.847-0.228,2.771-0.338c1.069-0.128,2.11-0.094,3.164,0.076c0.752,0.121,1.513,0.212,2.273,0.253
	c0.801,0.043,1.605,0.01,2.408,0.01c0,0.004,0,0.007,0,0.011c0.58,0,1.16,0.007,1.74-0.003c0.371-0.006,0.743-0.018,1.111-0.064
	c0.417-0.052,0.826-0.163,1.243-0.217c0.574-0.074,1.103-0.262,1.59-0.567c0.426-0.267,0.735-0.632,0.904-1.115
	C-495.689,48.103-495.727,47.632-495.85,47.144z"/>
<path style="fill:#4A2F2B;" d="M-495.667-2.254c-1.769-1.925-3.517-3.779-5.21-5.682c-3.074-3.455-5.831-7.151-8.175-11.14
	c-1.492-2.538-2.267-5.326-2.566-8.24c-0.541-5.275,1.169-9.803,4.797-13.581c2.368-2.465,5.327-3.97,8.719-4.5
	c2.988-0.467,5.911-0.128,8.664,1.156c4.94,2.304,8.013,6.178,9.27,11.454c0.906,3.802,0.168,7.467-1.273,11.009
	c-0.452,1.111-1.019,2.196-1.675,3.2c-3.666,5.617-7.777,10.9-12.194,15.946C-495.395-2.534-495.487-2.444-495.667-2.254z"/>
<path style="fill:#A67C52;" d="M-485.964-23.801c-0.206-0.819-0.706-1.391-1.444-1.754c-0.296-0.146-0.628-0.218-0.945-0.318
	c-0.13-0.041-0.224-0.078-0.128-0.246c0.109-0.189,0.221-0.382,0.288-0.588c0.239-0.738,0.124-1.47-0.203-2.139
	c-0.352-0.722-1.001-1.118-1.783-1.287c-0.272-0.059-0.328-0.168-0.21-0.419c0.369-0.785,0.125-1.785-0.546-2.285
	c-0.505-0.376-1.085-0.533-1.693-0.614c-0.221-0.03-0.267-0.088-0.177-0.282c0.253-0.546,0.216-1.093,0.013-1.644
	c-0.197-0.536-0.572-0.947-0.952-1.353c-0.573-0.612-1.22-1.142-1.933-1.579c-0.639-0.391-1.281-0.798-2.052-0.89
	c-0.112-0.013-0.231,0.033-0.347,0.051c0.028,0.109,0.039,0.228,0.089,0.327c0.146,0.287,0.25,0.582,0.137,0.898
	c-0.08,0.222-0.2,0.429-0.313,0.638c-0.232,0.43-0.494,0.846-0.693,1.291c-0.076,0.17-0.04,0.407-0.005,0.604
	c0.031,0.17,0.134,0.327,0.206,0.489c0.053,0.121,0.041,0.216-0.099,0.267c-0.144,0.053-0.284,0.119-0.431,0.165
	c-0.539,0.168-0.989,0.48-1.358,0.893c-0.476,0.532-0.814,1.146-0.771,1.884c0.021,0.371,0.124,0.742,0.227,1.102
	c0.09,0.315,0.059,0.398-0.255,0.464c-0.455,0.096-0.861,0.303-1.206,0.611c-0.378,0.336-0.602,0.759-0.738,1.255
	c-0.112,0.407-0.14,0.813-0.089,1.212c0.039,0.304,0.181,0.605,0.326,0.882c0.105,0.201,0.12,0.226-0.103,0.297
	c-0.317,0.1-0.643,0.189-0.939,0.337c-0.463,0.23-0.85,0.559-1.122,1.015c-0.378,0.634-0.48,1.322-0.385,2.034
	c0.065,0.484,0.22,0.951,0.557,1.329c0.211,0.237,0.462,0.414,0.775,0.491c0.362,0.089,0.72,0.214,1.087,0.258
	c0.946,0.114,1.847-0.228,2.771-0.338c1.069-0.128,2.11-0.094,3.164,0.076c0.752,0.121,1.513,0.212,2.273,0.253
	c0.801,0.043,1.605,0.01,2.408,0.01c0,0.004,0,0.007,0,0.011c0.58,0,1.16,0.007,1.74-0.003c0.371-0.006,0.743-0.018,1.111-0.064
	c0.417-0.052,0.826-0.163,1.243-0.217c0.574-0.074,1.103-0.262,1.59-0.567c0.426-0.267,0.735-0.632,0.904-1.115
	C-485.803-22.842-485.841-23.314-485.964-23.801z"/>
<path style="fill:#4A2F2B;" d="M-222.529,131.599c-1.769-1.925-3.517-3.779-5.21-5.682c-3.074-3.455-5.831-7.151-8.175-11.14
	c-1.492-2.538-2.267-5.326-2.566-8.24c-0.541-5.275,1.169-9.803,4.797-13.581c2.368-2.465,5.327-3.97,8.719-4.5
	c2.988-0.467,5.911-0.128,8.664,1.156c4.94,2.304,8.013,6.178,9.27,11.454c0.906,3.802,0.168,7.467-1.273,11.009
	c-0.452,1.111-1.019,2.196-1.675,3.2c-3.666,5.617-7.777,10.9-12.194,15.946C-222.256,131.32-222.349,131.41-222.529,131.599z"/>
<path style="fill:#A67C52;" d="M-212.826,110.053c-0.206-0.819-0.706-1.391-1.444-1.754c-0.296-0.146-0.628-0.218-0.945-0.318
	c-0.13-0.041-0.224-0.078-0.128-0.246c0.109-0.189,0.221-0.382,0.288-0.588c0.239-0.738,0.124-1.47-0.203-2.139
	c-0.352-0.722-1.001-1.118-1.783-1.287c-0.271-0.059-0.328-0.168-0.21-0.419c0.369-0.785,0.125-1.785-0.546-2.285
	c-0.505-0.376-1.085-0.533-1.693-0.614c-0.221-0.03-0.267-0.088-0.177-0.282c0.253-0.546,0.216-1.093,0.013-1.644
	c-0.197-0.536-0.572-0.947-0.952-1.353c-0.573-0.612-1.22-1.142-1.933-1.579c-0.639-0.391-1.281-0.798-2.052-0.89
	c-0.112-0.013-0.231,0.033-0.347,0.051c0.028,0.109,0.039,0.228,0.089,0.327c0.146,0.287,0.25,0.582,0.137,0.898
	c-0.08,0.222-0.2,0.429-0.313,0.638c-0.232,0.43-0.494,0.846-0.693,1.291c-0.076,0.17-0.04,0.407-0.005,0.604
	c0.031,0.17,0.134,0.327,0.206,0.489c0.053,0.121,0.041,0.216-0.099,0.267c-0.144,0.053-0.284,0.119-0.431,0.165
	c-0.539,0.168-0.989,0.48-1.358,0.893c-0.476,0.532-0.814,1.146-0.771,1.884c0.021,0.371,0.124,0.742,0.227,1.102
	c0.09,0.315,0.059,0.398-0.255,0.464c-0.455,0.096-0.861,0.303-1.206,0.611c-0.378,0.336-0.602,0.759-0.738,1.255
	c-0.112,0.407-0.14,0.813-0.089,1.212c0.039,0.304,0.181,0.605,0.326,0.882c0.105,0.201,0.12,0.226-0.103,0.297
	c-0.317,0.1-0.643,0.189-0.939,0.337c-0.463,0.23-0.85,0.559-1.122,1.015c-0.378,0.634-0.48,1.322-0.385,2.034
	c0.065,0.484,0.22,0.951,0.557,1.329c0.211,0.237,0.462,0.414,0.775,0.491c0.362,0.089,0.72,0.214,1.087,0.258
	c0.946,0.114,1.847-0.228,2.771-0.338c1.069-0.128,2.11-0.094,3.164,0.076c0.752,0.121,1.513,0.212,2.273,0.253
	c0.801,0.043,1.605,0.01,2.408,0.01c0,0.004,0,0.007,0,0.011c0.58,0,1.16,0.007,1.74-0.003c0.371-0.006,0.743-0.018,1.111-0.064
	c0.417-0.052,0.826-0.163,1.243-0.217c0.574-0.074,1.103-0.262,1.59-0.567c0.426-0.267,0.735-0.632,0.904-1.115
	C-212.665,111.011-212.703,110.54-212.826,110.053z"/>
<path style="fill:#FFFFFF;" d="M46.263,38.022c-0.449-1.781-1.535-3.023-3.139-3.814c-0.643-0.317-1.366-0.473-2.056-0.692
	c-0.283-0.09-0.488-0.17-0.278-0.534c0.237-0.411,0.481-0.831,0.626-1.278c0.519-1.605,0.269-3.195-0.44-4.65
	c-0.766-1.571-2.176-2.431-3.876-2.798c-0.59-0.128-0.714-0.365-0.456-0.912c0.803-1.706,0.272-3.881-1.186-4.968
	c-1.098-0.818-2.36-1.158-3.682-1.336c-0.481-0.065-0.58-0.191-0.385-0.612c0.55-1.188,0.469-2.377,0.028-3.574
	c-0.429-1.166-1.243-2.058-2.069-2.941c-1.246-1.331-2.652-2.483-4.202-3.432c-1.389-0.85-2.785-1.736-4.461-1.934
	c-0.244-0.029-0.503,0.071-0.755,0.111c0.062,0.238,0.084,0.496,0.193,0.71c0.318,0.623,0.544,1.266,0.298,1.952
	c-0.173,0.482-0.436,0.934-0.68,1.387c-0.503,0.935-1.074,1.839-1.506,2.806c-0.165,0.369-0.088,0.885-0.01,1.313
	c0.067,0.37,0.292,0.711,0.448,1.064c0.116,0.263,0.09,0.469-0.215,0.581c-0.314,0.115-0.618,0.259-0.936,0.358
	c-1.172,0.365-2.15,1.043-2.953,1.94c-1.034,1.156-1.769,2.491-1.677,4.095c0.047,0.807,0.269,1.613,0.494,2.397
	c0.196,0.685,0.128,0.866-0.555,1.01c-0.989,0.208-1.871,0.66-2.623,1.328c-0.823,0.731-1.309,1.651-1.605,2.728
	c-0.243,0.885-0.305,1.768-0.194,2.636c0.084,0.661,0.393,1.316,0.709,1.918c0.229,0.437,0.26,0.492-0.223,0.645
	c-0.689,0.218-1.398,0.412-2.041,0.732c-1.006,0.501-1.849,1.215-2.44,2.206c-0.821,1.378-1.044,2.873-0.837,4.423
	c0.141,1.053,0.478,2.067,1.212,2.89c0.459,0.515,1.004,0.9,1.684,1.068c0.787,0.194,1.565,0.465,2.364,0.562
	c2.056,0.248,4.015-0.495,6.025-0.736c2.323-0.278,4.586-0.205,6.879,0.165c1.635,0.264,3.289,0.461,4.942,0.55
	c1.741,0.093,3.49,0.021,5.236,0.021c0,0.008,0,0.016,0,0.024c1.261,0,2.522,0.016,3.783-0.006c0.806-0.014,1.616-0.039,2.415-0.139
	c0.906-0.114,1.796-0.355,2.702-0.472c1.248-0.162,2.398-0.569,3.458-1.233c0.927-0.581,1.597-1.374,1.966-2.424
	C46.613,40.107,46.53,39.082,46.263,38.022z"/>
<path style="fill:#A67C52;" d="M-534.464-129.269c-0.207-0.819-0.706-1.391-1.444-1.754c-0.296-0.146-0.628-0.218-0.945-0.318
	c-0.13-0.041-0.224-0.078-0.128-0.246c0.109-0.189,0.221-0.382,0.288-0.588c0.239-0.738,0.124-1.47-0.203-2.139
	c-0.352-0.722-1.001-1.118-1.783-1.287c-0.271-0.059-0.328-0.168-0.21-0.419c0.369-0.785,0.125-1.785-0.546-2.285
	c-0.505-0.376-1.085-0.533-1.693-0.614c-0.221-0.03-0.267-0.088-0.177-0.282c0.253-0.546,0.216-1.093,0.013-1.644
	c-0.197-0.536-0.572-0.947-0.952-1.353c-0.573-0.612-1.22-1.142-1.933-1.579c-0.639-0.391-1.281-0.798-2.052-0.89
	c-0.112-0.013-0.231,0.033-0.347,0.051c0.028,0.109,0.039,0.228,0.089,0.327c0.146,0.287,0.25,0.582,0.137,0.898
	c-0.08,0.222-0.2,0.429-0.313,0.638c-0.232,0.43-0.494,0.846-0.693,1.291c-0.076,0.17-0.04,0.407-0.005,0.604
	c0.031,0.17,0.134,0.327,0.206,0.489c0.053,0.121,0.041,0.216-0.099,0.267c-0.144,0.053-0.284,0.119-0.431,0.165
	c-0.539,0.168-0.989,0.48-1.358,0.893c-0.476,0.532-0.814,1.146-0.771,1.884c0.021,0.371,0.124,0.742,0.227,1.102
	c0.09,0.315,0.059,0.398-0.255,0.464c-0.455,0.096-0.861,0.303-1.206,0.611c-0.378,0.336-0.602,0.759-0.738,1.255
	c-0.112,0.407-0.14,0.813-0.089,1.212c0.039,0.304,0.181,0.605,0.326,0.882c0.105,0.201,0.12,0.226-0.103,0.297
	c-0.317,0.1-0.643,0.189-0.939,0.337c-0.463,0.23-0.85,0.559-1.122,1.015c-0.378,0.634-0.48,1.322-0.385,2.034
	c0.065,0.484,0.22,0.951,0.557,1.329c0.211,0.237,0.462,0.414,0.775,0.491c0.362,0.089,0.72,0.214,1.087,0.258
	c0.946,0.114,1.847-0.228,2.771-0.338c1.069-0.128,2.109-0.094,3.164,0.076c0.752,0.121,1.513,0.212,2.273,0.253
	c0.801,0.043,1.605,0.01,2.408,0.01c0,0.004,0,0.007,0,0.011c0.58,0,1.16,0.007,1.74-0.003c0.371-0.006,0.743-0.018,1.111-0.064
	c0.417-0.052,0.826-0.163,1.243-0.217c0.574-0.074,1.103-0.262,1.59-0.567c0.426-0.267,0.735-0.632,0.904-1.115
	C-534.303-128.31-534.341-128.782-534.464-129.269z"/>
<path style="fill:#A67C52;" d="M-560.787-126.304c-0.206-0.819-0.706-1.391-1.444-1.754c-0.296-0.146-0.628-0.218-0.945-0.318
	c-0.13-0.041-0.224-0.078-0.128-0.246c0.109-0.189,0.221-0.382,0.288-0.588c0.239-0.738,0.124-1.47-0.203-2.139
	c-0.352-0.722-1.001-1.118-1.783-1.287c-0.271-0.059-0.328-0.168-0.21-0.419c0.369-0.785,0.125-1.785-0.546-2.285
	c-0.505-0.376-1.085-0.533-1.693-0.614c-0.221-0.03-0.267-0.088-0.177-0.282c0.253-0.546,0.216-1.093,0.013-1.644
	c-0.197-0.536-0.572-0.947-0.952-1.353c-0.573-0.612-1.22-1.142-1.933-1.579c-0.639-0.391-1.281-0.798-2.052-0.89
	c-0.112-0.013-0.231,0.033-0.347,0.051c0.028,0.109,0.039,0.228,0.089,0.327c0.146,0.287,0.25,0.582,0.137,0.898
	c-0.08,0.222-0.2,0.429-0.313,0.638c-0.232,0.43-0.494,0.846-0.693,1.291c-0.076,0.17-0.04,0.407-0.005,0.604
	c0.031,0.17,0.134,0.327,0.206,0.489c0.053,0.121,0.041,0.216-0.099,0.267c-0.144,0.053-0.284,0.119-0.431,0.165
	c-0.539,0.168-0.989,0.48-1.358,0.893c-0.476,0.532-0.814,1.146-0.771,1.884c0.021,0.371,0.124,0.742,0.227,1.102
	c0.09,0.315,0.059,0.398-0.255,0.464c-0.455,0.096-0.861,0.303-1.206,0.611c-0.378,0.336-0.602,0.759-0.738,1.255
	c-0.112,0.407-0.14,0.813-0.089,1.212c0.039,0.304,0.181,0.605,0.326,0.882c0.106,0.201,0.12,0.226-0.103,0.297
	c-0.317,0.1-0.643,0.189-0.939,0.337c-0.463,0.23-0.85,0.559-1.122,1.015c-0.378,0.634-0.48,1.322-0.385,2.034
	c0.065,0.484,0.22,0.951,0.557,1.329c0.211,0.237,0.462,0.414,0.775,0.491c0.362,0.089,0.72,0.214,1.087,0.258
	c0.946,0.114,1.847-0.228,2.771-0.338c1.069-0.128,2.11-0.094,3.164,0.076c0.752,0.121,1.513,0.212,2.273,0.253
	c0.801,0.043,1.605,0.01,2.408,0.01c0,0.004,0,0.007,0,0.011c0.58,0,1.16,0.007,1.74-0.003c0.371-0.006,0.743-0.018,1.111-0.064
	c0.417-0.052,0.826-0.163,1.243-0.217c0.574-0.074,1.103-0.262,1.59-0.567c0.426-0.267,0.735-0.632,0.904-1.115
	C-560.625-125.345-560.664-125.816-560.787-126.304z"/>
<g>
	<path style="fill:#FFFFFF;" d="M-483.956,121.43c8.325,0,16.597,0,24.91,0c0.007,0.153,0.019,0.301,0.019,0.45
		c0.002,7.251,0.004,14.502,0.003,21.753c0,1.505-1.258,2.695-2.88,2.715c-1.206,0.016-2.412,0.003-3.618,0.003
		c-5.144,0-10.287-0.005-15.431,0.004c-1.182,0.002-2.116-0.426-2.671-1.489c-0.185-0.355-0.318-0.784-0.319-1.18
		c-0.018-7.292-0.012-14.585-0.012-21.877C-483.956,121.698-483.956,121.588-483.956,121.43z M-470.134,133.836
		c0,3.117,0.004,6.235-0.006,9.352c-0.001,0.316,0.072,0.444,0.415,0.43c0.636-0.027,1.276-0.032,1.911,0.001
		c0.402,0.021,0.509-0.108,0.507-0.508c-0.014-4.004-0.009-8.008-0.009-12.012c0-2.175-0.005-4.351,0.006-6.526
		c0.002-0.316-0.072-0.444-0.415-0.43c-0.65,0.026-1.303,0.029-1.953-0.001c-0.369-0.017-0.467,0.099-0.465,0.465
		C-470.128,127.684-470.134,130.76-470.134,133.836z M-478.45,143.583c0-6.477,0-12.927,0-19.398c-0.93,0-1.834,0-2.736,0
		c0,6.484,0,12.935,0,19.398C-480.262,143.583-479.369,143.583-478.45,143.583z M-475.667,124.17c0,0.207,0,0.37,0,0.534
		c0,6.112,0,12.223,0,18.335c0,0.111-0.026,0.232,0.01,0.33c0.034,0.093,0.134,0.228,0.207,0.229c0.841,0.016,1.683,0.01,2.542,0.01
		c0-6.504,0-12.964,0-19.438C-473.825,124.17-474.708,124.17-475.667,124.17z M-461.81,124.186c-0.932,0-1.835,0-2.733,0
		c0,6.486,0,12.936,0,19.396c0.925,0,1.818,0,2.733,0C-461.81,137.104-461.81,130.654-461.81,124.186z"/>
	<path style="fill:#FFFFFF;" d="M-478.424,115.84c0-0.898,0.003-1.767-0.001-2.637c-0.007-1.628,1.13-2.848,2.755-2.864
		c2.786-0.027,5.573-0.027,8.36,0.002c1.605,0.017,2.736,1.23,2.735,2.838c-0.001,0.871,0,1.743,0,2.683c0.187,0,0.346,0,0.505,0
		c2.246,0,4.492,0,6.738,0c0.89,0,1.078,0.187,1.077,1.063c0,0.513-0.002,1.026-0.004,1.539c0,0.027-0.011,0.054-0.027,0.131
		c-0.132,0.007-0.278,0.022-0.423,0.022c-9.857,0.001-19.715-0.001-29.572,0.008c-0.36,0-0.496-0.084-0.47-0.461
		c0.033-0.469,0.005-0.942,0.009-1.414c0.005-0.644,0.228-0.879,0.879-0.886c1.026-0.011,2.052-0.003,3.078-0.003
		c1.289,0,2.579,0.001,3.868-0.001C-478.77,115.861-478.621,115.849-478.424,115.84z M-475.641,115.835c2.775,0,5.523,0,8.291,0
		c0-0.931,0-1.835,0-2.736c-2.785,0-5.536,0-8.291,0C-475.641,114.023-475.641,114.918-475.641,115.835z"/>
</g>
<path style="fill:#A67C52;stroke:#4A2F2B;stroke-width:2;stroke-miterlimit:10;" d="M-540.679-116.04
	c-0.338-1.342-1.156-2.277-2.365-2.873c-0.484-0.239-1.029-0.356-1.548-0.521c-0.213-0.068-0.368-0.128-0.209-0.402
	c0.179-0.309,0.363-0.626,0.472-0.963c0.391-1.209,0.203-2.407-0.332-3.502c-0.577-1.183-1.639-1.831-2.919-2.108
	c-0.445-0.096-0.538-0.275-0.344-0.687c0.605-1.285,0.205-2.923-0.894-3.742c-0.827-0.616-1.777-0.872-2.773-1.006
	c-0.363-0.049-0.437-0.144-0.29-0.461c0.414-0.895,0.353-1.79,0.021-2.692c-0.323-0.878-0.936-1.551-1.558-2.215
	c-0.939-1.003-1.998-1.87-3.165-2.585c-1.046-0.641-2.098-1.307-3.36-1.457c-0.184-0.022-0.379,0.053-0.569,0.084
	c0.047,0.179,0.063,0.374,0.146,0.535c0.239,0.47,0.41,0.954,0.225,1.47c-0.13,0.363-0.328,0.703-0.512,1.045
	c-0.379,0.705-0.809,1.386-1.135,2.114c-0.124,0.278-0.066,0.666-0.008,0.989c0.051,0.278,0.22,0.535,0.337,0.802
	c0.087,0.198,0.067,0.353-0.162,0.437c-0.236,0.087-0.465,0.195-0.705,0.27c-0.883,0.275-1.619,0.786-2.224,1.462
	c-0.779,0.871-1.333,1.876-1.263,3.085c0.035,0.608,0.203,1.215,0.372,1.805c0.148,0.516,0.096,0.652-0.418,0.761
	c-0.745,0.157-1.409,0.497-1.976,1c-0.62,0.551-0.986,1.243-1.209,2.055c-0.183,0.667-0.229,1.332-0.146,1.986
	c0.063,0.498,0.296,0.991,0.534,1.445c0.173,0.329,0.196,0.371-0.168,0.486c-0.519,0.164-1.053,0.31-1.537,0.551
	c-0.758,0.377-1.393,0.915-1.838,1.662c-0.618,1.038-0.786,2.164-0.63,3.332c0.106,0.793,0.36,1.557,0.913,2.177
	c0.346,0.388,0.756,0.678,1.269,0.804c0.593,0.146,1.179,0.35,1.781,0.423c1.549,0.187,3.024-0.373,4.538-0.554
	c1.75-0.209,3.455-0.154,5.182,0.124c1.232,0.199,2.477,0.348,3.723,0.414c1.311,0.07,2.629,0.016,3.944,0.016
	c0,0.006,0,0.012,0,0.018c0.95,0,1.9,0.012,2.849-0.004c0.607-0.01,1.218-0.029,1.819-0.105c0.682-0.086,1.353-0.267,2.035-0.356
	c0.94-0.122,1.807-0.428,2.604-0.929c0.698-0.438,1.203-1.035,1.481-1.826C-540.415-114.47-540.477-115.242-540.679-116.04z"/>
<path style="fill:#4A2F2B;" d="M-289.451-125.028c-3.356-3.653-6.673-7.171-9.886-10.781c-5.833-6.555-11.063-13.568-15.511-21.137
	c-2.831-4.816-4.302-10.105-4.869-15.634c-1.027-10.009,2.217-18.601,9.102-25.769c4.494-4.678,10.107-7.533,16.544-8.539
	c5.67-0.886,11.216-0.242,16.439,2.194c9.373,4.372,15.204,11.723,17.589,21.734c1.718,7.214,0.319,14.167-2.415,20.889
	c-0.858,2.108-1.934,4.166-3.178,6.073c-6.957,10.659-14.756,20.682-23.136,30.256C-288.934-125.558-289.11-125.387-289.451-125.028
	z"/>
<g>
	<path style="fill:#F15A24;" d="M-303.359-182.257c9.201,0,18.343,0,27.531,0c0.008,0.169,0.021,0.333,0.021,0.497
		c0.002,8.014,0.004,16.027,0.003,24.041c0,1.663-1.39,2.978-3.183,3.001c-1.333,0.017-2.666,0.004-3.999,0.004
		c-5.685,0-11.369-0.006-17.054,0.004c-1.306,0.002-2.338-0.471-2.952-1.646c-0.205-0.392-0.352-0.867-0.353-1.304
		c-0.02-8.06-0.014-16.119-0.013-24.179C-303.359-181.96-303.359-182.082-303.359-182.257z M-288.082-168.545
		c0,3.445,0.004,6.891-0.007,10.336c-0.001,0.35,0.08,0.491,0.458,0.475c0.703-0.029,1.41-0.035,2.112,0.001
		c0.445,0.023,0.562-0.12,0.561-0.561c-0.016-4.425-0.01-8.851-0.01-13.276c0-2.404-0.006-4.808,0.007-7.212
		c0.002-0.35-0.08-0.49-0.458-0.475c-0.719,0.029-1.44,0.032-2.158-0.001c-0.408-0.018-0.516,0.11-0.514,0.514
		C-288.075-175.344-288.082-171.945-288.082-168.545z M-297.273-157.773c0-7.159,0-14.287,0-21.439c-1.028,0-2.027,0-3.024,0
		c0,7.166,0,14.296,0,21.439C-299.276-157.773-298.289-157.773-297.273-157.773z M-294.197-179.229c0,0.228,0,0.409,0,0.59
		c0,6.755,0,13.509,0,20.264c0,0.123-0.029,0.256,0.011,0.364c0.038,0.102,0.148,0.252,0.228,0.253
		c0.93,0.018,1.86,0.011,2.809,0.011c0-7.188,0-14.328,0-21.483C-292.162-179.229-293.137-179.229-294.197-179.229z
		 M-278.883-179.21c-1.03,0-2.029,0-3.021,0c0,7.168,0,14.297,0,21.436c1.022,0,2.01,0,3.021,0
		C-278.883-164.934-278.883-172.063-278.883-179.21z"/>
	<path style="fill:#F15A24;" d="M-297.244-188.435c0-0.993,0.003-1.953-0.001-2.914c-0.008-1.799,1.249-3.148,3.045-3.165
		c3.08-0.029,6.16-0.03,9.239,0.002c1.774,0.018,3.024,1.359,3.022,3.136c-0.001,0.963,0,1.926,0,2.966c0.207,0,0.382,0,0.558,0
		c2.482,0,4.965-0.001,7.447,0c0.983,0,1.191,0.206,1.191,1.175c0,0.567-0.002,1.134-0.005,1.701c0,0.03-0.012,0.06-0.03,0.145
		c-0.146,0.008-0.307,0.025-0.468,0.025c-10.894,0.001-21.789-0.001-32.683,0.009c-0.398,0-0.548-0.093-0.519-0.509
		c0.036-0.518,0.005-1.041,0.009-1.562c0.005-0.711,0.251-0.972,0.971-0.979c1.134-0.012,2.268-0.004,3.402-0.004
		c1.425,0,2.85,0.001,4.275-0.001C-297.627-188.412-297.463-188.425-297.244-188.435z M-294.168-188.441c3.067,0,6.104,0,9.163,0
		c0-1.029,0-2.028,0-3.023c-3.078,0-6.118,0-9.163,0C-294.168-190.443-294.168-189.454-294.168-188.441z"/>
</g>
<path style="fill:#4A2F2B;" d="M-598.983-207.266c-3.356-3.653-6.673-7.171-9.886-10.781c-5.833-6.555-11.063-13.568-15.511-21.137
	c-2.831-4.816-4.302-10.105-4.869-15.634c-1.027-10.009,2.217-18.601,9.102-25.769c4.494-4.678,10.107-7.533,16.544-8.539
	c5.67-0.886,11.216-0.242,16.439,2.194c9.373,4.372,15.204,11.723,17.589,21.734c1.718,7.214,0.32,14.167-2.415,20.889
	c-0.858,2.108-1.934,4.166-3.178,6.073c-6.957,10.659-14.756,20.682-23.136,30.256
	C-598.465-207.797-598.641-207.625-598.983-207.266z"/>
<g>
	<path style="fill:#F15A24;" d="M-612.89-264.495c9.201,0,18.343,0,27.531,0c0.008,0.169,0.021,0.333,0.021,0.497
		c0.002,8.014,0.004,16.027,0.003,24.041c0,1.663-1.39,2.978-3.183,3.001c-1.333,0.017-2.666,0.004-3.999,0.004
		c-5.685,0-11.369-0.006-17.054,0.004c-1.306,0.002-2.338-0.471-2.953-1.646c-0.205-0.392-0.352-0.867-0.353-1.304
		c-0.02-8.06-0.014-16.119-0.013-24.179C-612.89-264.199-612.89-264.321-612.89-264.495z M-597.613-250.784
		c0,3.445,0.004,6.891-0.007,10.336c-0.001,0.35,0.08,0.491,0.458,0.475c0.703-0.029,1.41-0.035,2.112,0.001
		c0.445,0.023,0.562-0.12,0.561-0.561c-0.016-4.425-0.01-8.851-0.01-13.276c0-2.404-0.006-4.808,0.007-7.212
		c0.002-0.35-0.08-0.49-0.458-0.475c-0.719,0.029-1.44,0.032-2.158-0.001c-0.408-0.018-0.516,0.11-0.514,0.514
		C-597.607-257.583-597.613-254.183-597.613-250.784z M-606.804-240.011c0-7.159,0-14.287,0-21.439c-1.028,0-2.027,0-3.024,0
		c0,7.166,0,14.296,0,21.439C-608.807-240.011-607.82-240.011-606.804-240.011z M-603.729-261.467c0,0.228,0,0.409,0,0.59
		c0,6.755,0,13.509,0,20.264c0,0.123-0.029,0.256,0.011,0.364c0.038,0.102,0.148,0.252,0.228,0.253
		c0.93,0.018,1.86,0.011,2.809,0.011c0-7.188,0-14.328,0-21.483C-601.693-261.467-602.668-261.467-603.729-261.467z
		 M-588.414-261.449c-1.03,0-2.029,0-3.021,0c0,7.168,0,14.297,0,21.436c1.022,0,2.01,0,3.021,0
		C-588.414-247.173-588.414-254.301-588.414-261.449z"/>
	<path style="fill:#F15A24;" d="M-606.775-270.674c0-0.993,0.003-1.953-0.001-2.914c-0.008-1.799,1.249-3.148,3.045-3.165
		c3.08-0.029,6.16-0.03,9.239,0.002c1.774,0.018,3.024,1.359,3.022,3.136c-0.001,0.963,0,1.926,0,2.966c0.207,0,0.382,0,0.558,0
		c2.482,0,4.965-0.001,7.447,0c0.983,0,1.191,0.206,1.191,1.175c0,0.567-0.002,1.134-0.005,1.701c0,0.03-0.012,0.06-0.03,0.145
		c-0.146,0.008-0.307,0.025-0.468,0.025c-10.894,0.001-21.789-0.001-32.683,0.009c-0.398,0-0.548-0.093-0.519-0.509
		c0.036-0.518,0.005-1.041,0.01-1.562c0.005-0.711,0.251-0.972,0.971-0.979c1.134-0.012,2.268-0.004,3.402-0.004
		c1.425,0,2.85,0.001,4.275-0.001C-607.158-270.65-606.994-270.664-606.775-270.674z M-603.699-270.679c3.067,0,6.104,0,9.163,0
		c0-1.029,0-2.028,0-3.023c-3.078,0-6.118,0-9.163,0C-603.699-272.681-603.699-271.693-603.699-270.679z"/>
</g>
<path style="fill:#4A2F2B;" d="M-221.578-125.028c-3.356-3.653-6.673-7.171-9.886-10.781c-5.833-6.555-11.063-13.568-15.511-21.137
	c-2.831-4.816-4.302-10.105-4.869-15.634c-1.027-10.009,2.217-18.601,9.102-25.769c4.494-4.678,10.107-7.533,16.544-8.539
	c5.67-0.886,11.215-0.242,16.438,2.194c9.373,4.372,15.204,11.723,17.589,21.734c1.718,7.214,0.32,14.167-2.415,20.889
	c-0.858,2.108-1.934,4.166-3.178,6.073c-6.957,10.659-14.756,20.682-23.136,30.256
	C-221.061-125.558-221.236-125.387-221.578-125.028z"/>
<g>
	<path style="fill:#999999;" d="M-235.485-182.257c9.201,0,18.343,0,27.531,0c0.008,0.169,0.021,0.333,0.021,0.497
		c0.002,8.014,0.004,16.027,0.003,24.041c0,1.663-1.39,2.978-3.183,3.001c-1.333,0.017-2.666,0.004-3.999,0.004
		c-5.685,0-11.369-0.006-17.054,0.004c-1.306,0.002-2.338-0.471-2.953-1.646c-0.205-0.392-0.352-0.867-0.353-1.304
		c-0.02-8.06-0.014-16.119-0.013-24.179C-235.485-181.96-235.485-182.082-235.485-182.257z M-220.209-168.545
		c0,3.445,0.004,6.891-0.007,10.336c-0.001,0.35,0.08,0.491,0.458,0.475c0.703-0.029,1.41-0.035,2.112,0.001
		c0.445,0.023,0.562-0.12,0.561-0.561c-0.016-4.425-0.01-8.851-0.01-13.276c0-2.404-0.006-4.808,0.007-7.212
		c0.002-0.35-0.08-0.49-0.458-0.475c-0.719,0.029-1.44,0.032-2.158-0.001c-0.408-0.018-0.516,0.11-0.514,0.514
		C-220.202-175.344-220.209-171.945-220.209-168.545z M-229.399-157.773c0-7.159,0-14.287,0-21.439c-1.028,0-2.027,0-3.024,0
		c0,7.166,0,14.296,0,21.439C-231.403-157.773-230.415-157.773-229.399-157.773z M-226.324-179.229c0,0.228,0,0.409,0,0.59
		c0,6.755,0,13.509,0,20.264c0,0.123-0.029,0.256,0.011,0.364c0.038,0.102,0.148,0.252,0.228,0.253
		c0.93,0.018,1.86,0.011,2.809,0.011c0-7.188,0-14.328,0-21.483C-224.288-179.229-225.264-179.229-226.324-179.229z M-211.01-179.21
		c-1.03,0-2.029,0-3.021,0c0,7.168,0,14.297,0,21.436c1.022,0,2.01,0,3.021,0C-211.01-164.934-211.01-172.063-211.01-179.21z"/>
	<path style="fill:#999999;" d="M-229.371-188.435c0-0.993,0.003-1.953-0.001-2.914c-0.008-1.799,1.249-3.148,3.045-3.165
		c3.08-0.029,6.16-0.03,9.239,0.002c1.774,0.018,3.024,1.359,3.022,3.136c-0.001,0.963,0,1.926,0,2.966c0.207,0,0.382,0,0.558,0
		c2.482,0,4.965-0.001,7.447,0c0.983,0,1.191,0.206,1.191,1.175c0,0.567-0.002,1.134-0.005,1.701c0,0.03-0.012,0.06-0.03,0.145
		c-0.146,0.008-0.307,0.025-0.468,0.025c-10.894,0.001-21.789-0.001-32.683,0.009c-0.398,0-0.548-0.093-0.519-0.509
		c0.036-0.518,0.005-1.041,0.01-1.562c0.005-0.711,0.251-0.972,0.971-0.979c1.134-0.012,2.268-0.004,3.402-0.004
		c1.425,0,2.85,0.001,4.275-0.001C-229.753-188.412-229.589-188.425-229.371-188.435z M-226.295-188.441c3.067,0,6.104,0,9.163,0
		c0-1.029,0-2.028,0-3.023c-3.078,0-6.118,0-9.163,0C-226.295-190.443-226.295-189.454-226.295-188.441z"/>
</g>
<path style="fill:#4A2F2B;" d="M-154.376-125.028c-3.356-3.653-6.673-7.171-9.886-10.781c-5.833-6.555-11.063-13.568-15.511-21.137
	c-2.831-4.816-4.302-10.105-4.869-15.634c-1.027-10.009,2.217-18.601,9.102-25.769c4.494-4.678,10.107-7.533,16.544-8.539
	c5.67-0.886,11.216-0.242,16.439,2.194c9.373,4.372,15.204,11.723,17.589,21.734c1.718,7.214,0.319,14.167-2.415,20.889
	c-0.858,2.108-1.934,4.166-3.178,6.073c-6.957,10.659-14.756,20.682-23.136,30.256
	C-153.859-125.558-154.035-125.387-154.376-125.028z"/>
<g>
	<path style="fill:#8CC63F;" d="M-168.283-182.257c9.201,0,18.343,0,27.531,0c0.008,0.169,0.021,0.333,0.021,0.497
		c0.002,8.014,0.004,16.027,0.003,24.041c0,1.663-1.39,2.978-3.183,3.001c-1.333,0.017-2.666,0.004-3.999,0.004
		c-5.685,0-11.369-0.006-17.054,0.004c-1.306,0.002-2.338-0.471-2.952-1.646c-0.205-0.392-0.352-0.867-0.353-1.304
		c-0.02-8.06-0.014-16.119-0.013-24.179C-168.283-181.96-168.283-182.082-168.283-182.257z M-153.007-168.545
		c0,3.445,0.004,6.891-0.007,10.336c-0.001,0.35,0.08,0.491,0.458,0.475c0.703-0.029,1.41-0.035,2.112,0.001
		c0.445,0.023,0.562-0.12,0.561-0.561c-0.016-4.425-0.01-8.851-0.01-13.276c0-2.404-0.006-4.808,0.007-7.212
		c0.002-0.35-0.08-0.49-0.458-0.475c-0.719,0.029-1.44,0.032-2.158-0.001c-0.408-0.018-0.516,0.11-0.514,0.514
		C-153-175.344-153.007-171.945-153.007-168.545z M-162.198-157.773c0-7.159,0-14.287,0-21.439c-1.028,0-2.027,0-3.024,0
		c0,7.166,0,14.296,0,21.439C-164.201-157.773-163.214-157.773-162.198-157.773z M-159.122-179.229c0,0.228,0,0.409,0,0.59
		c0,6.755,0,13.509,0,20.264c0,0.123-0.029,0.256,0.011,0.364c0.038,0.102,0.148,0.252,0.228,0.253
		c0.93,0.018,1.86,0.011,2.809,0.011c0-7.188,0-14.328,0-21.483C-157.087-179.229-158.062-179.229-159.122-179.229z
		 M-143.808-179.21c-1.03,0-2.029,0-3.021,0c0,7.168,0,14.297,0,21.436c1.022,0,2.01,0,3.021,0
		C-143.808-164.934-143.808-172.063-143.808-179.21z"/>
	<path style="fill:#8CC63F;" d="M-162.169-188.435c0-0.993,0.003-1.953-0.001-2.914c-0.008-1.799,1.249-3.148,3.045-3.165
		c3.08-0.029,6.16-0.03,9.239,0.002c1.774,0.018,3.024,1.359,3.022,3.136c-0.001,0.963,0,1.926,0,2.966c0.207,0,0.382,0,0.558,0
		c2.482,0,4.965-0.001,7.447,0c0.983,0,1.191,0.206,1.191,1.175c0,0.567-0.002,1.134-0.005,1.701c0,0.03-0.012,0.06-0.03,0.145
		c-0.146,0.008-0.307,0.025-0.468,0.025c-10.894,0.001-21.789-0.001-32.683,0.009c-0.398,0-0.548-0.093-0.519-0.509
		c0.036-0.518,0.005-1.041,0.009-1.562c0.005-0.711,0.251-0.972,0.971-0.979c1.134-0.012,2.268-0.004,3.402-0.004
		c1.425,0,2.85,0.001,4.275-0.001C-162.551-188.412-162.387-188.425-162.169-188.435z M-159.093-188.441c3.067,0,6.104,0,9.163,0
		c0-1.029,0-2.028,0-3.023c-3.078,0-6.118,0-9.163,0C-159.093-190.443-159.093-189.454-159.093-188.441z"/>
</g>
<g>
	<path style="fill:#FFFFFF;" d="M-60.08,17.714c9.201,0,18.343,0,27.531,0c0.008,0.169,0.021,0.333,0.021,0.497
		c0.002,8.014,0.004,16.027,0.003,24.041c0,1.663-1.39,2.978-3.183,3.001c-1.333,0.017-2.666,0.004-3.999,0.004
		c-5.685,0-11.369-0.006-17.054,0.004c-1.306,0.002-2.338-0.471-2.953-1.646c-0.205-0.392-0.352-0.867-0.353-1.304
		c-0.02-8.06-0.014-16.119-0.013-24.179C-60.08,18.01-60.08,17.889-60.08,17.714z M-44.804,31.425c0,3.445,0.004,6.891-0.007,10.336
		c-0.001,0.35,0.08,0.491,0.458,0.475c0.703-0.029,1.41-0.035,2.112,0.001c0.445,0.023,0.562-0.12,0.561-0.561
		c-0.016-4.425-0.01-8.851-0.01-13.276c0-2.404-0.006-4.808,0.007-7.212c0.002-0.35-0.08-0.49-0.458-0.475
		c-0.719,0.029-1.44,0.032-2.158-0.001c-0.408-0.018-0.516,0.11-0.514,0.514C-44.797,24.626-44.804,28.026-44.804,31.425z
		 M-53.994,42.198c0-7.159,0-14.287,0-21.439c-1.028,0-2.027,0-3.024,0c0,7.166,0,14.296,0,21.439
		C-55.998,42.198-55.011,42.198-53.994,42.198z M-50.919,20.742c0,0.228,0,0.409,0,0.59c0,6.755,0,13.509,0,20.264
		c0,0.123-0.029,0.256,0.011,0.364c0.038,0.102,0.148,0.252,0.228,0.253c0.93,0.018,1.86,0.011,2.809,0.011
		c0-7.188,0-14.328,0-21.483C-48.884,20.742-49.859,20.742-50.919,20.742z M-35.605,20.76c-1.03,0-2.029,0-3.021,0
		c0,7.168,0,14.297,0,21.436c1.022,0,2.01,0,3.021,0C-35.605,35.037-35.605,27.908-35.605,20.76z"/>
	<path style="fill:#FFFFFF;" d="M-53.966,11.536c0-0.993,0.003-1.953-0.001-2.914c-0.008-1.799,1.249-3.148,3.045-3.165
		c3.08-0.029,6.16-0.03,9.239,0.002c1.774,0.018,3.024,1.359,3.022,3.136c-0.001,0.963,0,1.926,0,2.966c0.207,0,0.382,0,0.558,0
		c2.482,0,4.965-0.001,7.447,0c0.983,0,1.191,0.206,1.191,1.175c0,0.567-0.002,1.134-0.005,1.701c0,0.03-0.012,0.06-0.03,0.145
		c-0.146,0.008-0.307,0.025-0.468,0.025c-10.894,0.001-21.789-0.001-32.683,0.009c-0.398,0-0.548-0.093-0.519-0.509
		c0.036-0.518,0.005-1.041,0.009-1.562c0.005-0.711,0.251-0.972,0.971-0.979c1.134-0.012,2.268-0.004,3.402-0.004
		c1.425,0,2.85,0.001,4.275-0.001C-54.348,11.559-54.184,11.545-53.966,11.536z M-50.89,11.53c3.067,0,6.104,0,9.163,0
		c0-1.029,0-2.028,0-3.023c-3.078,0-6.118,0-9.163,0C-50.89,9.528-50.89,10.516-50.89,11.53z"/>
</g>
<path style="fill:#4A2F2B;" d="M-664.288-35.19c-3.356-3.653-6.673-7.171-9.886-10.781c-5.833-6.555-11.063-13.568-15.511-21.137
	c-2.831-4.816-4.302-10.105-4.869-15.634c-1.027-10.009,2.217-18.601,9.102-25.769c4.494-4.678,10.107-7.533,16.544-8.539
	c5.67-0.886,11.216-0.242,16.438,2.194c9.373,4.372,15.204,11.723,17.589,21.734c1.718,7.214,0.32,14.167-2.415,20.889
	c-0.858,2.108-1.934,4.166-3.178,6.073c-6.957,10.659-14.756,20.682-23.136,30.256C-663.771-35.72-663.946-35.549-664.288-35.19z"/>
<g>
	<path style="fill:#8CC63F;" d="M-678.195-92.419c9.201,0,18.343,0,27.531,0c0.008,0.169,0.021,0.333,0.021,0.497
		c0.002,8.014,0.004,16.027,0.003,24.041c0,1.663-1.39,2.978-3.183,3.001c-1.333,0.017-2.666,0.004-3.999,0.004
		c-5.685,0-11.369-0.006-17.054,0.004c-1.306,0.002-2.338-0.471-2.953-1.646c-0.205-0.392-0.352-0.867-0.353-1.304
		c-0.02-8.06-0.014-16.119-0.013-24.179C-678.195-92.123-678.195-92.244-678.195-92.419z M-662.919-78.708
		c0,3.445,0.004,6.891-0.007,10.336c-0.001,0.35,0.08,0.491,0.458,0.475c0.703-0.029,1.41-0.035,2.112,0.001
		c0.445,0.023,0.562-0.12,0.561-0.561c-0.016-4.425-0.01-8.851-0.01-13.276c0-2.404-0.006-4.808,0.007-7.212
		c0.002-0.35-0.08-0.49-0.458-0.475c-0.719,0.029-1.44,0.032-2.158-0.001c-0.408-0.018-0.516,0.11-0.514,0.514
		C-662.912-85.507-662.919-82.107-662.919-78.708z M-672.109-67.935c0-7.159,0-14.287,0-21.439c-1.028,0-2.027,0-3.024,0
		c0,7.166,0,14.296,0,21.439C-674.113-67.935-673.126-67.935-672.109-67.935z M-669.034-89.391c0,0.228,0,0.409,0,0.59
		c0,6.755,0,13.509,0,20.264c0,0.123-0.029,0.256,0.011,0.364c0.038,0.102,0.148,0.252,0.228,0.253
		c0.93,0.018,1.86,0.011,2.809,0.011c0-7.188,0-14.328,0-21.483C-666.999-89.391-667.974-89.391-669.034-89.391z M-653.72-89.373
		c-1.03,0-2.029,0-3.021,0c0,7.168,0,14.297,0,21.436c1.022,0,2.01,0,3.021,0C-653.72-75.096-653.72-82.225-653.72-89.373z"/>
	<path style="fill:#8CC63F;" d="M-672.081-98.597c0-0.993,0.003-1.953-0.001-2.914c-0.008-1.799,1.249-3.148,3.045-3.165
		c3.08-0.029,6.16-0.03,9.239,0.002c1.774,0.018,3.024,1.359,3.022,3.136c-0.001,0.963,0,1.926,0,2.966c0.207,0,0.382,0,0.558,0
		c2.482,0,4.965-0.001,7.447,0c0.983,0,1.191,0.206,1.191,1.175c0,0.567-0.002,1.134-0.005,1.701c0,0.03-0.012,0.06-0.03,0.145
		c-0.146,0.008-0.307,0.025-0.468,0.025c-10.894,0.001-21.789-0.001-32.683,0.009c-0.398,0-0.548-0.093-0.519-0.509
		c0.036-0.518,0.005-1.041,0.01-1.562c0.005-0.711,0.251-0.972,0.971-0.979c1.134-0.012,2.268-0.004,3.402-0.004
		c1.425,0,2.85,0.001,4.275-0.001C-672.463-98.574-672.299-98.588-672.081-98.597z M-669.005-98.603c3.067,0,6.104,0,9.163,0
		c0-1.029,0-2.028,0-3.023c-3.078,0-6.118,0-9.163,0C-669.005-100.605-669.005-99.617-669.005-98.603z"/>
</g>
</svg>
