<?xml version="1.0" encoding="iso-8859-1"?>
<!-- Generator: Adobe Illustrator 18.1.1, SVG Export Plug-In . SVG Version: 6.00 Build 0)  -->
<svg version="1.1" id="Layer_1" xmlns="http://www.w3.org/2000/svg" xmlns:xlink="http://www.w3.org/1999/xlink" x="0px" y="0px"
	 viewBox="0 0 208 74" style="enable-background:new 0 0 208 74;" xml:space="preserve">
<g>
	<path style="fill:#FFFFFF;" d="M27.702,72.666c-2.911-3.168-5.788-6.22-8.575-9.351c-5.059-5.686-9.596-11.769-13.454-18.334
		c-2.455-4.177-3.731-8.765-4.223-13.561C0.56,22.738,3.374,15.286,9.346,9.069c3.898-4.058,8.767-6.534,14.35-7.406
		c4.918-0.769,9.728-0.21,14.258,1.903c8.13,3.792,13.187,10.168,15.256,18.851c1.49,6.257,0.277,12.288-2.095,18.118
		c-0.744,1.829-1.677,3.614-2.757,5.267c-6.034,9.245-12.799,17.939-20.068,26.243C28.151,72.205,27.999,72.354,27.702,72.666z"/>
	<path style="fill:#C69C6D;" d="M43.671,37.205c-0.34-1.348-1.162-2.288-2.376-2.887c-0.487-0.24-1.034-0.358-1.556-0.524
		c-0.214-0.068-0.369-0.129-0.21-0.404c0.179-0.311,0.364-0.629,0.474-0.968c0.393-1.215,0.204-2.419-0.333-3.52
		c-0.58-1.189-1.647-1.84-2.934-2.118c-0.447-0.097-0.54-0.276-0.345-0.69c0.608-1.291,0.206-2.938-0.898-3.76
		c-0.831-0.619-1.786-0.876-2.787-1.011c-0.364-0.049-0.439-0.144-0.291-0.464c0.416-0.899,0.355-1.799,0.022-2.706
		c-0.324-0.883-0.941-1.558-1.566-2.226c-0.943-1.008-2.007-1.88-3.181-2.598c-1.051-0.644-2.108-1.314-3.377-1.464
		c-0.185-0.022-0.381,0.054-0.572,0.084c0.047,0.18,0.064,0.376,0.146,0.538c0.241,0.472,0.412,0.959,0.226,1.477
		c-0.131,0.365-0.33,0.707-0.515,1.05c-0.381,0.708-0.813,1.392-1.14,2.124c-0.125,0.279-0.067,0.67-0.008,0.994
		c0.051,0.28,0.221,0.538,0.339,0.806c0.088,0.199,0.068,0.355-0.163,0.44c-0.238,0.087-0.468,0.196-0.709,0.271
		c-0.887,0.276-1.627,0.789-2.235,1.469c-0.783,0.875-1.339,1.885-1.269,3.1c0.035,0.611,0.204,1.221,0.374,1.814
		c0.149,0.519,0.097,0.655-0.42,0.764c-0.749,0.158-1.416,0.499-1.986,1.005c-0.623,0.553-0.991,1.25-1.215,2.065
		c-0.184,0.67-0.231,1.338-0.147,1.995c0.064,0.5,0.298,0.996,0.536,1.452c0.174,0.331,0.197,0.372-0.169,0.488
		c-0.522,0.165-1.058,0.312-1.545,0.554c-0.762,0.379-1.4,0.92-1.847,1.67c-0.621,1.043-0.79,2.175-0.633,3.348
		c0.107,0.797,0.362,1.564,0.917,2.188c0.348,0.39,0.76,0.681,1.275,0.808c0.596,0.147,1.185,0.352,1.789,0.425
		c1.556,0.188,3.039-0.375,4.56-0.557c1.759-0.21,3.472-0.155,5.207,0.125c1.238,0.2,2.49,0.349,3.741,0.416
		c1.318,0.07,2.642,0.016,3.963,0.016c0,0.006,0,0.012,0,0.018c0.954,0,1.909,0.012,2.863-0.004c0.61-0.01,1.224-0.029,1.828-0.105
		c0.686-0.086,1.36-0.268,2.045-0.357c0.945-0.123,1.816-0.43,2.617-0.933c0.702-0.44,1.209-1.04,1.488-1.835
		C43.936,38.783,43.873,38.007,43.671,37.205z"/>
	<g>
		<path style="fill:#C69C6D;" d="M78.965,27.906h-2.863l-0.619-2.515c-0.464-0.438-1.048-0.79-1.751-1.055
			c-0.702-0.264-1.499-0.396-2.389-0.396c-1.354,0-2.36,0.297-3.018,0.89c-0.658,0.594-0.986,1.31-0.986,2.147
			c0,0.825,0.29,1.477,0.87,1.954c0.58,0.477,1.761,0.902,3.54,1.276c2.644,0.567,4.61,1.338,5.9,2.312
			c1.289,0.974,1.935,2.28,1.935,3.918c0,1.856-0.752,3.359-2.254,4.507c-1.503,1.148-3.466,1.722-5.891,1.722
			c-1.586,0-3.012-0.184-4.275-0.552c-1.264-0.367-2.392-0.899-3.385-1.596l-0.02-4.778h2.863l0.716,2.806
			c0.438,0.399,1.034,0.689,1.789,0.87c0.754,0.181,1.524,0.271,2.312,0.271c1.354,0,2.415-0.273,3.183-0.821
			c0.767-0.549,1.15-1.268,1.15-2.157c0-0.838-0.319-1.528-0.957-2.07c-0.639-0.541-1.848-1.012-3.627-1.412
			c-2.541-0.554-4.456-1.309-5.746-2.263c-1.289-0.955-1.935-2.244-1.935-3.869c0-1.702,0.726-3.153,2.177-4.353
			s3.337-1.799,5.658-1.799c1.586,0,3.011,0.206,4.275,0.619c1.264,0.412,2.314,0.986,3.153,1.722L78.965,27.906z"/>
		<path style="fill:#C69C6D;" d="M102.294,32.588c0,3.018-0.726,5.452-2.177,7.302c-1.45,1.852-3.446,2.776-5.987,2.776
			c-1.367,0-2.553-0.261-3.559-0.783s-1.845-1.293-2.516-2.312l-0.348,2.688h-3.289V15.081l-3.152-0.542v-2.457h6.964v11.723
			c0.657-0.928,1.473-1.638,2.447-2.128c0.973-0.489,2.111-0.734,3.414-0.734c2.579,0,4.591,1.031,6.035,3.095
			s2.167,4.778,2.167,8.145V32.588z M98.464,32.182c0-2.412-0.438-4.372-1.315-5.881c-0.878-1.509-2.219-2.264-4.024-2.264
			c-1.173,0-2.163,0.284-2.969,0.852c-0.807,0.567-1.448,1.328-1.925,2.282v9.247c0.477,0.967,1.125,1.734,1.944,2.302
			c0.818,0.567,1.814,0.852,2.988,0.852c1.792,0,3.124-0.639,3.995-1.916c0.87-1.276,1.306-2.966,1.306-5.067V32.182z"/>
		<path style="fill:#C69C6D;" d="M105.293,39.822l3.153-0.542V24.327l-3.153-0.541v-2.457h6.964V39.28l3.153,0.542v2.438h-10.117
			V39.822z M112.257,15.971h-3.811v-3.889h3.811V15.971z"/>
		<path style="fill:#C69C6D;" d="M119.105,23.786v-2.457h6.558l0.368,3.037c0.593-1.07,1.324-1.908,2.195-2.515
			c0.87-0.606,1.866-0.909,2.988-0.909c0.297,0,0.604,0.022,0.919,0.067c0.316,0.045,0.558,0.094,0.726,0.146l-0.503,3.54
			l-2.167-0.116c-1.006,0-1.851,0.235-2.533,0.706c-0.685,0.471-1.213,1.132-1.587,1.982V39.28l3.153,0.542v2.438h-10.117v-2.438
			l3.153-0.542V24.327L119.105,23.786z"/>
		<path style="fill:#C69C6D;" d="M143.898,42.666c-2.915,0-5.233-0.971-6.955-2.911c-1.722-1.941-2.582-4.459-2.582-7.555V31.35
			c0-2.979,0.887-5.458,2.66-7.438c1.772-1.979,3.871-2.969,6.296-2.969c2.812,0,4.942,0.851,6.394,2.553
			c1.451,1.703,2.177,3.973,2.177,6.81v2.38h-13.58l-0.059,0.097c0.039,2.012,0.549,3.665,1.528,4.962
			c0.98,1.296,2.354,1.943,4.121,1.943c1.289,0,2.421-0.184,3.395-0.551c0.974-0.368,1.815-0.874,2.524-1.519l1.489,2.476
			c-0.748,0.723-1.737,1.332-2.969,1.828C147.105,42.418,145.625,42.666,143.898,42.666z M143.316,23.94
			c-1.276,0-2.366,0.539-3.269,1.615c-0.903,1.077-1.458,2.428-1.664,4.053l0.039,0.097h9.652v-0.503
			c0-1.496-0.399-2.747-1.199-3.753S144.89,23.94,143.316,23.94z"/>
		<path style="fill:#C69C6D;" d="M161.327,43.981c0,2.153-0.555,3.813-1.664,4.981c-1.109,1.167-2.649,1.75-4.623,1.75
			c-0.413,0-0.787-0.028-1.122-0.087c-0.335-0.058-0.684-0.145-1.045-0.261l0.252-2.998c0.181,0.063,0.445,0.118,0.793,0.164
			c0.349,0.045,0.632,0.067,0.852,0.067c0.838,0,1.505-0.283,2.002-0.851c0.496-0.568,0.745-1.49,0.745-2.767V24.327l-3.153-0.541
			v-2.457h6.964V43.981z M161.211,15.894H157.4v-3.812h3.811V15.894z"/>
		<path style="fill:#C69C6D;" d="M170.787,42.26h-3.812v-3.907h3.812V42.26z"/>
		<path style="fill:#C69C6D;" d="M180.499,16.28v5.049h3.966v2.824h-3.966v12.709c0,0.98,0.203,1.671,0.609,2.07
			s0.944,0.6,1.615,0.6c0.336,0,0.713-0.029,1.132-0.087c0.419-0.059,0.771-0.119,1.055-0.184l0.521,2.611
			c-0.36,0.232-0.89,0.422-1.586,0.57s-1.393,0.223-2.089,0.223c-1.548,0-2.779-0.468-3.695-1.402s-1.373-2.402-1.373-4.401V24.153
			h-3.308v-2.824h3.308V16.28H180.499z"/>
		<path style="fill:#C69C6D;" d="M187.985,31.601c0-3.095,0.838-5.645,2.515-7.65c1.677-2.005,3.952-3.008,6.828-3.008
			c2.889,0,5.175,0.999,6.858,2.998c1.683,1.999,2.524,4.553,2.524,7.66v0.426c0,3.121-0.839,5.675-2.515,7.66
			c-1.677,1.986-3.953,2.979-6.829,2.979c-2.901,0-5.19-0.996-6.867-2.988c-1.677-1.993-2.515-4.543-2.515-7.651V31.601z
			 M191.796,32.026c0,2.219,0.468,4.05,1.402,5.494c0.936,1.444,2.324,2.166,4.169,2.166c1.806,0,3.179-0.722,4.12-2.166
			s1.412-3.275,1.412-5.494v-0.426c0-2.192-0.471-4.017-1.412-5.475c-0.941-1.457-2.327-2.186-4.159-2.186
			c-1.831,0-3.211,0.729-4.14,2.186c-0.928,1.458-1.393,3.282-1.393,5.475V32.026z"/>
	</g>
</g>
</svg>
